<?xml version="1.0" encoding="UTF-8"?>
<svg xmlns="http://www.w3.org/2000/svg" xmlns:xlink="http://www.w3.org/1999/xlink" width="783" height="800" viewBox="0 0 783 800">
<defs>
<g>
<g id="glyph-0-0">
<path d="M 1.429688 -2.464844 C 1.949219 -2.484375 2.320312 -2.535156 2.542969 -2.625 C 2.925781 -2.78125 3.113281 -3.078125 3.113281 -3.511719 C 3.113281 -3.929688 2.945312 -4.214844 2.601562 -4.367188 C 2.417969 -4.449219 2.175781 -4.488281 1.875 -4.488281 C 1.671875 -4.488281 1.546875 -4.476562 1.5 -4.445312 C 1.453125 -4.417969 1.429688 -4.347656 1.429688 -4.238281 Z M 0.0820312 -0.128906 C 0.359375 -0.15625 0.53125 -0.210938 0.597656 -0.292969 C 0.664062 -0.375 0.699219 -0.566406 0.699219 -0.863281 L 0.699219 -3.984375 C 0.699219 -4.238281 0.660156 -4.402344 0.585938 -4.480469 C 0.507812 -4.558594 0.339844 -4.609375 0.0820312 -4.628906 L 0.0820312 -4.761719 L 2.074219 -4.761719 C 2.488281 -4.761719 2.835938 -4.710938 3.109375 -4.605469 C 3.636719 -4.40625 3.898438 -4.039062 3.898438 -3.503906 C 3.898438 -3.144531 3.78125 -2.871094 3.550781 -2.679688 C 3.316406 -2.488281 3 -2.359375 2.597656 -2.300781 L 4.082031 -0.472656 C 4.171875 -0.363281 4.265625 -0.28125 4.355469 -0.226562 C 4.445312 -0.175781 4.5625 -0.144531 4.707031 -0.128906 L 4.707031 0 L 3.546875 0 L 1.832031 -2.214844 L 1.429688 -2.195312 L 1.429688 -0.78125 C 1.429688 -0.511719 1.472656 -0.34375 1.550781 -0.273438 C 1.632812 -0.203125 1.808594 -0.152344 2.082031 -0.128906 L 2.082031 0 L 0.0820312 0 Z M 0.0820312 -0.128906 "/>
</g>
<g id="glyph-0-1">
<path d="M 0.117188 -0.128906 C 0.398438 -0.160156 0.574219 -0.210938 0.644531 -0.285156 C 0.714844 -0.359375 0.75 -0.554688 0.75 -0.863281 L 0.75 -3.984375 C 0.75 -4.242188 0.710938 -4.410156 0.632812 -4.484375 C 0.554688 -4.5625 0.378906 -4.609375 0.117188 -4.628906 L 0.117188 -4.761719 L 2.117188 -4.761719 L 2.117188 -4.628906 C 1.851562 -4.609375 1.679688 -4.5625 1.597656 -4.484375 C 1.519531 -4.40625 1.480469 -4.242188 1.480469 -3.984375 L 1.480469 -2.582031 L 3.664062 -2.582031 L 3.664062 -3.984375 C 3.664062 -4.242188 3.625 -4.410156 3.546875 -4.484375 C 3.46875 -4.5625 3.296875 -4.609375 3.03125 -4.628906 L 3.03125 -4.761719 L 5.03125 -4.761719 L 5.03125 -4.628906 C 4.765625 -4.609375 4.59375 -4.5625 4.515625 -4.484375 C 4.4375 -4.40625 4.398438 -4.242188 4.398438 -3.984375 L 4.398438 -0.78125 C 4.398438 -0.519531 4.4375 -0.351562 4.515625 -0.277344 C 4.59375 -0.203125 4.765625 -0.152344 5.03125 -0.128906 L 5.03125 0 L 3.03125 0 L 3.03125 -0.128906 C 3.3125 -0.15625 3.492188 -0.210938 3.558594 -0.285156 C 3.628906 -0.359375 3.664062 -0.554688 3.664062 -0.863281 L 3.664062 -2.265625 L 1.480469 -2.265625 L 1.480469 -0.78125 C 1.480469 -0.519531 1.519531 -0.347656 1.597656 -0.273438 C 1.679688 -0.199219 1.851562 -0.152344 2.117188 -0.128906 L 2.117188 0 L 0.117188 0 Z M 0.117188 -0.128906 "/>
</g>
<g id="glyph-0-2">
<path d="M 0.0820312 -0.128906 C 0.347656 -0.15625 0.515625 -0.207031 0.597656 -0.273438 C 0.675781 -0.339844 0.714844 -0.507812 0.714844 -0.78125 L 0.714844 -3.984375 C 0.714844 -4.238281 0.675781 -4.40625 0.597656 -4.484375 C 0.519531 -4.5625 0.347656 -4.609375 0.0820312 -4.628906 L 0.0820312 -4.761719 L 3.90625 -4.761719 L 3.929688 -3.730469 L 3.746094 -3.730469 C 3.6875 -4.050781 3.59375 -4.253906 3.472656 -4.347656 C 3.351562 -4.441406 3.078125 -4.488281 2.65625 -4.488281 L 1.679688 -4.488281 C 1.574219 -4.488281 1.511719 -4.472656 1.484375 -4.4375 C 1.460938 -4.402344 1.449219 -4.339844 1.449219 -4.246094 L 1.449219 -2.640625 L 2.554688 -2.640625 C 2.863281 -2.640625 3.058594 -2.6875 3.144531 -2.777344 C 3.226562 -2.867188 3.296875 -3.054688 3.347656 -3.332031 L 3.515625 -3.332031 L 3.515625 -1.667969 L 3.347656 -1.667969 C 3.292969 -1.945312 3.222656 -2.128906 3.140625 -2.21875 C 3.054688 -2.308594 2.859375 -2.355469 2.554688 -2.355469 L 1.449219 -2.355469 L 1.449219 -0.574219 C 1.449219 -0.429688 1.492188 -0.34375 1.582031 -0.320312 C 1.671875 -0.292969 1.945312 -0.28125 2.394531 -0.28125 C 2.882812 -0.28125 3.242188 -0.335938 3.472656 -0.441406 C 3.707031 -0.546875 3.914062 -0.804688 4.097656 -1.214844 L 4.300781 -1.214844 L 3.972656 0 L 0.0820312 0 Z M 0.0820312 -0.128906 "/>
</g>
<g id="glyph-0-3">
<path d="M 3.214844 -1.847656 L 2.378906 -3.832031 L 1.558594 -1.847656 Z M 0.105469 0 L 0.105469 -0.128906 C 0.289062 -0.152344 0.429688 -0.222656 0.523438 -0.339844 C 0.613281 -0.460938 0.773438 -0.785156 1 -1.316406 L 2.5 -4.847656 L 2.640625 -4.847656 L 4.433594 -0.765625 C 4.554688 -0.496094 4.648438 -0.328125 4.71875 -0.261719 C 4.789062 -0.199219 4.910156 -0.152344 5.078125 -0.128906 L 5.078125 0 L 3.25 0 L 3.25 -0.128906 C 3.460938 -0.148438 3.59375 -0.171875 3.65625 -0.199219 C 3.71875 -0.226562 3.746094 -0.292969 3.746094 -0.398438 C 3.746094 -0.433594 3.734375 -0.496094 3.710938 -0.582031 C 3.6875 -0.671875 3.65625 -0.765625 3.613281 -0.863281 L 3.316406 -1.558594 L 1.429688 -1.558594 C 1.242188 -1.085938 1.132812 -0.796875 1.09375 -0.695312 C 1.058594 -0.589844 1.039062 -0.507812 1.039062 -0.445312 C 1.039062 -0.324219 1.089844 -0.238281 1.1875 -0.191406 C 1.25 -0.164062 1.363281 -0.144531 1.53125 -0.128906 L 1.53125 0 Z M 0.105469 0 "/>
</g>
<g id="glyph-0-4">
<path d="M 1.363281 -2.921875 C 1.363281 -2.804688 1.324219 -2.707031 1.242188 -2.636719 C 1.160156 -2.5625 1.070312 -2.523438 0.964844 -2.523438 C 0.855469 -2.523438 0.761719 -2.5625 0.6875 -2.644531 C 0.617188 -2.722656 0.578125 -2.816406 0.578125 -2.917969 C 0.578125 -3.027344 0.617188 -3.117188 0.691406 -3.195312 C 0.765625 -3.269531 0.859375 -3.308594 0.964844 -3.308594 C 1.070312 -3.308594 1.160156 -3.269531 1.242188 -3.199219 C 1.324219 -3.125 1.363281 -3.03125 1.363281 -2.921875 Z M 0.957031 0.0585938 C 0.859375 0.0585938 0.769531 0.0195312 0.695312 -0.0546875 C 0.617188 -0.132812 0.578125 -0.226562 0.578125 -0.335938 C 0.578125 -0.441406 0.617188 -0.535156 0.691406 -0.613281 C 0.765625 -0.691406 0.859375 -0.730469 0.96875 -0.730469 C 1.078125 -0.730469 1.175781 -0.691406 1.257812 -0.617188 C 1.339844 -0.539062 1.382812 -0.449219 1.382812 -0.339844 C 1.382812 -0.238281 1.34375 -0.144531 1.265625 -0.0625 C 1.1875 0.0195312 1.085938 0.0585938 0.957031 0.0585938 Z M 0.957031 0.0585938 "/>
</g>
<g id="glyph-0-5">
<path d="M 0.558594 -0.613281 C 0.6875 -0.613281 0.859375 -0.542969 1.070312 -0.410156 C 1.28125 -0.277344 1.460938 -0.210938 1.609375 -0.210938 C 1.9375 -0.210938 2.183594 -0.320312 2.339844 -0.542969 C 2.5 -0.765625 2.582031 -1.003906 2.582031 -1.265625 C 2.582031 -1.515625 2.515625 -1.738281 2.386719 -1.925781 C 2.167969 -2.246094 1.800781 -2.40625 1.28125 -2.40625 C 1.253906 -2.40625 1.222656 -2.40625 1.195312 -2.40625 C 1.167969 -2.40625 1.132812 -2.402344 1.097656 -2.398438 L 1.089844 -2.488281 C 1.464844 -2.625 1.761719 -2.78125 1.976562 -2.957031 C 2.191406 -3.132812 2.300781 -3.363281 2.300781 -3.652344 C 2.300781 -3.90625 2.214844 -4.101562 2.042969 -4.234375 C 1.875 -4.371094 1.679688 -4.4375 1.460938 -4.4375 C 1.203125 -4.4375 0.976562 -4.339844 0.78125 -4.152344 C 0.671875 -4.050781 0.554688 -3.890625 0.433594 -3.671875 L 0.324219 -3.699219 C 0.417969 -4.054688 0.589844 -4.339844 0.847656 -4.550781 C 1.101562 -4.765625 1.398438 -4.871094 1.734375 -4.871094 C 2.09375 -4.871094 2.367188 -4.773438 2.566406 -4.578125 C 2.761719 -4.378906 2.859375 -4.152344 2.859375 -3.894531 C 2.859375 -3.667969 2.777344 -3.460938 2.617188 -3.269531 C 2.523438 -3.160156 2.382812 -3.039062 2.191406 -2.90625 C 2.414062 -2.8125 2.59375 -2.699219 2.730469 -2.570312 C 2.988281 -2.324219 3.113281 -2.011719 3.113281 -1.632812 C 3.113281 -1.1875 2.941406 -0.796875 2.589844 -0.457031 C 2.238281 -0.117188 1.738281 0.0507812 1.09375 0.0507812 C 0.804688 0.0507812 0.601562 0.0117188 0.488281 -0.0742188 C 0.371094 -0.160156 0.3125 -0.253906 0.3125 -0.351562 C 0.3125 -0.414062 0.332031 -0.472656 0.371094 -0.527344 C 0.410156 -0.582031 0.472656 -0.613281 0.558594 -0.613281 Z M 0.558594 -0.613281 "/>
</g>
<g id="glyph-0-6">
<path d="M 1.808594 -0.121094 C 2.078125 -0.121094 2.285156 -0.195312 2.421875 -0.34375 C 2.558594 -0.496094 2.628906 -0.683594 2.628906 -0.90625 C 2.628906 -1.164062 2.554688 -1.371094 2.410156 -1.527344 C 2.261719 -1.6875 1.960938 -1.925781 1.507812 -2.246094 C 1.304688 -2.121094 1.160156 -1.957031 1.070312 -1.753906 C 0.976562 -1.550781 0.929688 -1.359375 0.929688 -1.171875 C 0.929688 -0.851562 1.015625 -0.59375 1.179688 -0.402344 C 1.34375 -0.214844 1.554688 -0.121094 1.808594 -0.121094 Z M 1.855469 -2.804688 C 2.078125 -2.960938 2.230469 -3.089844 2.3125 -3.195312 C 2.457031 -3.375 2.53125 -3.59375 2.53125 -3.847656 C 2.53125 -4.070312 2.460938 -4.261719 2.324219 -4.417969 C 2.1875 -4.574219 1.980469 -4.652344 1.703125 -4.652344 C 1.488281 -4.652344 1.308594 -4.582031 1.167969 -4.445312 C 1.027344 -4.3125 0.957031 -4.144531 0.957031 -3.953125 C 0.957031 -3.730469 1.039062 -3.527344 1.203125 -3.339844 C 1.367188 -3.148438 1.585938 -2.972656 1.855469 -2.804688 Z M 1.316406 -2.398438 C 1.007812 -2.644531 0.792969 -2.84375 0.683594 -2.992188 C 0.507812 -3.21875 0.421875 -3.464844 0.421875 -3.738281 C 0.421875 -4.046875 0.550781 -4.308594 0.808594 -4.523438 C 1.0625 -4.738281 1.398438 -4.847656 1.808594 -4.847656 C 2.183594 -4.847656 2.484375 -4.746094 2.707031 -4.542969 C 2.929688 -4.339844 3.039062 -4.101562 3.039062 -3.832031 C 3.039062 -3.558594 2.925781 -3.3125 2.699219 -3.09375 C 2.570312 -2.96875 2.355469 -2.828125 2.0625 -2.664062 C 2.460938 -2.371094 2.746094 -2.113281 2.917969 -1.894531 C 3.089844 -1.675781 3.179688 -1.414062 3.179688 -1.117188 C 3.179688 -0.78125 3.050781 -0.496094 2.796875 -0.265625 C 2.542969 -0.0351562 2.203125 0.078125 1.773438 0.078125 C 1.394531 0.078125 1.066406 -0.0273438 0.792969 -0.242188 C 0.519531 -0.453125 0.382812 -0.730469 0.382812 -1.078125 C 0.382812 -1.375 0.476562 -1.640625 0.667969 -1.867188 C 0.792969 -2.015625 1.007812 -2.191406 1.316406 -2.398438 Z M 1.316406 -2.398438 "/>
</g>
<g id="glyph-0-7">
<path d="M 0.539062 -0.644531 C 0.671875 -0.644531 0.847656 -0.566406 1.0625 -0.417969 C 1.28125 -0.265625 1.445312 -0.191406 1.5625 -0.191406 C 1.832031 -0.191406 2.070312 -0.308594 2.269531 -0.546875 C 2.472656 -0.785156 2.574219 -1.078125 2.574219 -1.421875 C 2.574219 -2.03125 2.25 -2.46875 1.601562 -2.734375 C 1.242188 -2.882812 0.910156 -2.957031 0.601562 -2.957031 C 0.550781 -2.957031 0.515625 -2.957031 0.503906 -2.960938 C 0.492188 -2.964844 0.476562 -2.976562 0.457031 -3 C 0.460938 -3.019531 0.464844 -3.035156 0.46875 -3.046875 C 0.472656 -3.058594 0.476562 -3.070312 0.480469 -3.082031 L 1.246094 -4.761719 L 2.757812 -4.761719 C 2.832031 -4.761719 2.890625 -4.777344 2.929688 -4.800781 C 2.972656 -4.828125 3.023438 -4.875 3.089844 -4.945312 L 3.144531 -4.898438 L 2.871094 -4.246094 C 2.863281 -4.226562 2.835938 -4.210938 2.792969 -4.207031 C 2.753906 -4.199219 2.707031 -4.199219 2.65625 -4.199219 L 1.296875 -4.199219 L 1 -3.582031 C 1.382812 -3.515625 1.664062 -3.453125 1.84375 -3.394531 C 2.136719 -3.296875 2.378906 -3.152344 2.578125 -2.960938 C 2.746094 -2.792969 2.875 -2.605469 2.960938 -2.398438 C 3.046875 -2.191406 3.089844 -1.972656 3.089844 -1.738281 C 3.089844 -1.222656 2.90625 -0.789062 2.535156 -0.441406 C 2.167969 -0.09375 1.699219 0.078125 1.136719 0.078125 C 0.90625 0.078125 0.71875 0.0546875 0.578125 0.0117188 C 0.34375 -0.0625 0.226562 -0.191406 0.226562 -0.378906 C 0.226562 -0.449219 0.253906 -0.511719 0.304688 -0.5625 C 0.355469 -0.617188 0.433594 -0.644531 0.539062 -0.644531 Z M 0.539062 -0.644531 "/>
</g>
<g id="glyph-0-8">
<path d="M 2.128906 -4.832031 C 2.140625 -4.820312 2.144531 -4.808594 2.144531 -4.804688 C 2.148438 -4.796875 2.148438 -4.785156 2.148438 -4.761719 L 2.148438 -0.53125 C 2.148438 -0.351562 2.195312 -0.234375 2.292969 -0.1875 C 2.386719 -0.136719 2.566406 -0.109375 2.828125 -0.0976562 L 2.828125 0 L 0.847656 0 L 0.847656 -0.105469 C 1.132812 -0.121094 1.316406 -0.15625 1.402344 -0.222656 C 1.488281 -0.285156 1.53125 -0.421875 1.53125 -0.632812 L 1.53125 -3.886719 C 1.53125 -4 1.519531 -4.085938 1.492188 -4.144531 C 1.464844 -4.203125 1.402344 -4.234375 1.308594 -4.234375 C 1.246094 -4.234375 1.167969 -4.214844 1.070312 -4.183594 C 0.972656 -4.148438 0.882812 -4.113281 0.796875 -4.074219 L 0.796875 -4.171875 L 2.089844 -4.832031 Z M 2.128906 -4.832031 "/>
</g>
<g id="glyph-0-9">
<path d="M 2.097656 -4.105469 L 0.371094 -1.667969 L 2.097656 -1.667969 Z M 2.332031 -4.832031 L 2.664062 -4.832031 L 2.664062 -1.667969 L 3.398438 -1.667969 L 3.398438 -1.199219 L 2.664062 -1.199219 L 2.664062 0 L 2.105469 0 L 2.105469 -1.199219 L 0.0820312 -1.199219 L 0.0820312 -1.667969 Z M 2.332031 -4.832031 "/>
</g>
<g id="glyph-0-10">
<path d="M 2.664062 -4.847656 C 2.925781 -4.847656 3.191406 -4.808594 3.464844 -4.730469 C 3.738281 -4.652344 3.894531 -4.617188 3.925781 -4.617188 C 3.996094 -4.617188 4.058594 -4.632812 4.121094 -4.671875 C 4.179688 -4.710938 4.222656 -4.769531 4.246094 -4.847656 L 4.398438 -4.847656 L 4.464844 -3.230469 L 4.300781 -3.230469 C 4.203125 -3.550781 4.078125 -3.8125 3.921875 -4.007812 C 3.628906 -4.378906 3.230469 -4.5625 2.730469 -4.5625 C 2.226562 -4.5625 1.816406 -4.363281 1.496094 -3.964844 C 1.175781 -3.566406 1.015625 -3.019531 1.015625 -2.320312 C 1.015625 -1.679688 1.183594 -1.164062 1.519531 -0.78125 C 1.855469 -0.398438 2.28125 -0.207031 2.796875 -0.207031 C 3.171875 -0.207031 3.515625 -0.296875 3.828125 -0.472656 C 4.007812 -0.574219 4.207031 -0.726562 4.421875 -0.929688 L 4.554688 -0.796875 C 4.394531 -0.597656 4.199219 -0.417969 3.960938 -0.265625 C 3.558594 -0.0078125 3.121094 0.121094 2.652344 0.121094 C 1.878906 0.121094 1.261719 -0.128906 0.808594 -0.621094 C 0.390625 -1.078125 0.179688 -1.648438 0.179688 -2.335938 C 0.179688 -3.035156 0.402344 -3.625 0.84375 -4.097656 C 1.308594 -4.597656 1.917969 -4.847656 2.664062 -4.847656 Z M 2.664062 -4.847656 "/>
</g>
<g id="glyph-0-11">
<path d="M 2.140625 -0.261719 C 2.507812 -0.261719 2.816406 -0.332031 3.066406 -0.472656 C 3.3125 -0.617188 3.4375 -0.890625 3.4375 -1.296875 C 3.4375 -1.699219 3.292969 -1.976562 3.003906 -2.125 C 2.710938 -2.273438 2.339844 -2.34375 1.890625 -2.34375 C 1.78125 -2.34375 1.710938 -2.34375 1.683594 -2.34375 C 1.652344 -2.34375 1.609375 -2.347656 1.546875 -2.347656 L 1.546875 -0.554688 C 1.546875 -0.429688 1.582031 -0.351562 1.652344 -0.316406 C 1.722656 -0.277344 1.886719 -0.261719 2.140625 -0.261719 Z M 0.121094 -0.128906 C 0.414062 -0.144531 0.601562 -0.191406 0.6875 -0.265625 C 0.773438 -0.339844 0.816406 -0.511719 0.816406 -0.78125 L 0.816406 -3.984375 C 0.816406 -4.25 0.773438 -4.417969 0.6875 -4.496094 C 0.601562 -4.570312 0.414062 -4.617188 0.121094 -4.628906 L 0.121094 -4.761719 L 2.140625 -4.761719 C 2.71875 -4.761719 3.175781 -4.671875 3.515625 -4.484375 C 3.851562 -4.300781 4.023438 -3.980469 4.023438 -3.53125 C 4.023438 -3.191406 3.902344 -2.933594 3.667969 -2.757812 C 3.535156 -2.65625 3.332031 -2.570312 3.066406 -2.507812 C 3.394531 -2.425781 3.679688 -2.292969 3.914062 -2.109375 C 4.148438 -1.921875 4.265625 -1.660156 4.265625 -1.324219 C 4.265625 -0.761719 4.003906 -0.375 3.484375 -0.164062 C 3.210938 -0.0546875 2.871094 0 2.472656 0 L 0.121094 0 Z M 2.230469 -2.632812 C 2.472656 -2.636719 2.675781 -2.675781 2.832031 -2.75 C 3.136719 -2.890625 3.289062 -3.140625 3.289062 -3.503906 C 3.289062 -3.933594 3.113281 -4.222656 2.761719 -4.375 C 2.566406 -4.457031 2.273438 -4.496094 1.878906 -4.496094 C 1.726562 -4.496094 1.632812 -4.484375 1.597656 -4.457031 C 1.5625 -4.433594 1.546875 -4.363281 1.546875 -4.246094 L 1.546875 -2.621094 Z M 2.230469 -2.632812 "/>
</g>
<g id="glyph-0-12">
<path d="M 0.117188 -0.128906 C 0.410156 -0.152344 0.597656 -0.195312 0.683594 -0.261719 C 0.773438 -0.328125 0.816406 -0.5 0.816406 -0.78125 L 0.816406 -3.984375 C 0.816406 -4.25 0.773438 -4.417969 0.683594 -4.496094 C 0.597656 -4.570312 0.410156 -4.617188 0.117188 -4.628906 L 0.117188 -4.761719 L 2.246094 -4.761719 L 2.246094 -4.628906 C 1.953125 -4.617188 1.761719 -4.570312 1.675781 -4.496094 C 1.589844 -4.417969 1.546875 -4.246094 1.546875 -3.984375 L 1.546875 -0.78125 C 1.546875 -0.5 1.589844 -0.328125 1.675781 -0.261719 C 1.761719 -0.195312 1.953125 -0.152344 2.246094 -0.128906 L 2.246094 0 L 0.117188 0 Z M 0.117188 -0.128906 "/>
</g>
<g id="glyph-0-13">
<path d="M 3.230469 -4.761719 L 3.230469 -4.648438 L 1.703125 0.0664062 L 1.242188 0.0664062 L 2.664062 -4.234375 L 1.132812 -4.234375 C 0.90625 -4.234375 0.742188 -4.195312 0.640625 -4.121094 C 0.542969 -4.046875 0.414062 -3.886719 0.261719 -3.648438 L 0.140625 -3.707031 C 0.292969 -4.082031 0.386719 -4.3125 0.421875 -4.398438 C 0.460938 -4.488281 0.507812 -4.609375 0.566406 -4.761719 Z M 3.230469 -4.761719 "/>
</g>
<g id="glyph-0-14">
<path d="M 3.367188 -1.597656 C 3.367188 -1.171875 3.230469 -0.785156 2.953125 -0.4375 C 2.679688 -0.09375 2.320312 0.078125 1.878906 0.078125 C 1.46875 0.078125 1.09375 -0.117188 0.753906 -0.503906 C 0.414062 -0.890625 0.246094 -1.402344 0.246094 -2.046875 C 0.246094 -2.875 0.574219 -3.582031 1.230469 -4.175781 C 1.816406 -4.671875 2.476562 -4.921875 3.207031 -4.921875 L 3.222656 -4.804688 C 2.929688 -4.75 2.679688 -4.679688 2.464844 -4.585938 C 2.253906 -4.492188 2.066406 -4.363281 1.898438 -4.199219 C 1.726562 -4.03125 1.566406 -3.8125 1.417969 -3.554688 C 1.265625 -3.292969 1.164062 -3.035156 1.105469 -2.78125 C 1.253906 -2.871094 1.378906 -2.933594 1.484375 -2.976562 C 1.671875 -3.050781 1.859375 -3.089844 2.050781 -3.089844 C 2.421875 -3.089844 2.734375 -2.960938 2.988281 -2.703125 C 3.242188 -2.445312 3.367188 -2.078125 3.367188 -1.597656 Z M 2.722656 -1.328125 C 2.722656 -1.640625 2.675781 -1.917969 2.578125 -2.160156 C 2.414062 -2.5625 2.132812 -2.761719 1.738281 -2.761719 C 1.375 -2.761719 1.136719 -2.65625 1.015625 -2.441406 C 0.945312 -2.3125 0.910156 -2.101562 0.910156 -1.808594 C 0.910156 -1.425781 0.992188 -1.050781 1.15625 -0.683594 C 1.316406 -0.320312 1.574219 -0.136719 1.925781 -0.136719 C 2.207031 -0.136719 2.40625 -0.257812 2.535156 -0.492188 C 2.660156 -0.730469 2.722656 -1.011719 2.722656 -1.328125 Z M 2.722656 -1.328125 "/>
</g>
<g id="glyph-0-15">
<path d="M 0.214844 -0.0820312 C 1.074219 -0.972656 1.65625 -1.625 1.960938 -2.042969 C 2.269531 -2.460938 2.421875 -2.867188 2.421875 -3.261719 C 2.421875 -3.609375 2.328125 -3.875 2.140625 -4.054688 C 1.953125 -4.238281 1.730469 -4.328125 1.46875 -4.328125 C 1.148438 -4.328125 0.886719 -4.210938 0.6875 -3.976562 C 0.578125 -3.847656 0.472656 -3.648438 0.371094 -3.382812 L 0.222656 -3.414062 C 0.339844 -3.953125 0.539062 -4.328125 0.816406 -4.535156 C 1.097656 -4.746094 1.398438 -4.851562 1.71875 -4.851562 C 2.113281 -4.851562 2.4375 -4.726562 2.679688 -4.476562 C 2.925781 -4.226562 3.046875 -3.921875 3.046875 -3.5625 C 3.046875 -3.175781 2.914062 -2.804688 2.652344 -2.449219 C 2.386719 -2.09375 1.808594 -1.460938 0.925781 -0.546875 L 2.539062 -0.546875 C 2.761719 -0.546875 2.921875 -0.574219 3.011719 -0.628906 C 3.105469 -0.683594 3.207031 -0.8125 3.320312 -1.023438 L 3.414062 -0.980469 L 3.023438 0 L 0.214844 0 Z M 0.214844 -0.0820312 "/>
</g>
<g id="glyph-0-16">
<path d="M 0.464844 -1.449219 C 0.585938 -1.125 0.730469 -0.867188 0.894531 -0.675781 C 1.179688 -0.339844 1.535156 -0.171875 1.957031 -0.171875 C 2.1875 -0.171875 2.386719 -0.246094 2.554688 -0.390625 C 2.722656 -0.535156 2.804688 -0.738281 2.804688 -1 C 2.804688 -1.234375 2.722656 -1.4375 2.550781 -1.609375 C 2.441406 -1.71875 2.210938 -1.886719 1.855469 -2.105469 L 1.242188 -2.488281 C 1.054688 -2.605469 0.90625 -2.722656 0.796875 -2.84375 C 0.59375 -3.070312 0.492188 -3.320312 0.492188 -3.597656 C 0.492188 -3.960938 0.613281 -4.261719 0.855469 -4.503906 C 1.097656 -4.746094 1.414062 -4.867188 1.8125 -4.867188 C 1.976562 -4.867188 2.175781 -4.824219 2.40625 -4.746094 C 2.636719 -4.664062 2.769531 -4.621094 2.800781 -4.621094 C 2.890625 -4.621094 2.953125 -4.644531 2.988281 -4.6875 C 3.019531 -4.730469 3.046875 -4.789062 3.066406 -4.867188 L 3.214844 -4.867188 L 3.371094 -3.332031 L 3.199219 -3.332031 C 3.082031 -3.792969 2.894531 -4.117188 2.636719 -4.300781 C 2.375 -4.484375 2.121094 -4.574219 1.867188 -4.574219 C 1.671875 -4.574219 1.5 -4.515625 1.351562 -4.398438 C 1.207031 -4.285156 1.132812 -4.121094 1.132812 -3.917969 C 1.132812 -3.730469 1.1875 -3.574219 1.300781 -3.441406 C 1.414062 -3.308594 1.585938 -3.167969 1.824219 -3.023438 L 2.457031 -2.632812 C 2.851562 -2.390625 3.132812 -2.164062 3.292969 -1.960938 C 3.453125 -1.753906 3.53125 -1.511719 3.53125 -1.230469 C 3.53125 -0.851562 3.390625 -0.539062 3.105469 -0.285156 C 2.820312 -0.03125 2.457031 0.09375 2.015625 0.09375 C 1.792969 0.09375 1.558594 0.0507812 1.316406 -0.03125 C 1.074219 -0.117188 0.933594 -0.15625 0.898438 -0.15625 C 0.816406 -0.15625 0.757812 -0.132812 0.730469 -0.0820312 C 0.699219 -0.03125 0.679688 0.0273438 0.671875 0.0859375 L 0.511719 0.0859375 L 0.296875 -1.449219 Z M 0.464844 -1.449219 "/>
</g>
<g id="glyph-0-17">
<path d="M 0.0820312 -0.128906 C 0.347656 -0.15625 0.515625 -0.207031 0.597656 -0.273438 C 0.675781 -0.339844 0.714844 -0.507812 0.714844 -0.78125 L 0.714844 -3.984375 C 0.714844 -4.238281 0.675781 -4.40625 0.597656 -4.484375 C 0.519531 -4.5625 0.347656 -4.609375 0.0820312 -4.628906 L 0.0820312 -4.761719 L 2.117188 -4.761719 L 2.117188 -4.628906 C 1.851562 -4.617188 1.675781 -4.574219 1.582031 -4.5 C 1.492188 -4.425781 1.449219 -4.269531 1.449219 -4.03125 L 1.449219 -0.574219 C 1.449219 -0.492188 1.460938 -0.429688 1.488281 -0.386719 C 1.515625 -0.339844 1.574219 -0.308594 1.667969 -0.296875 C 1.722656 -0.292969 1.777344 -0.285156 1.835938 -0.285156 C 1.894531 -0.28125 2.007812 -0.28125 2.171875 -0.28125 C 2.8125 -0.28125 3.246094 -0.332031 3.46875 -0.4375 C 3.695312 -0.542969 3.914062 -0.8125 4.125 -1.246094 L 4.304688 -1.246094 L 3.953125 0 L 0.0820312 0 Z M 0.0820312 -0.128906 "/>
</g>
<g id="glyph-0-18">
<path d="M 0.0820312 -0.128906 C 0.378906 -0.160156 0.570312 -0.226562 0.652344 -0.332031 C 0.738281 -0.4375 0.78125 -0.679688 0.78125 -1.058594 L 0.78125 -3.984375 C 0.78125 -4.242188 0.738281 -4.414062 0.65625 -4.492188 C 0.574219 -4.570312 0.390625 -4.617188 0.0976562 -4.628906 L 0.0976562 -4.761719 L 1.523438 -4.761719 L 3.1875 -1.132812 L 4.78125 -4.761719 L 6.214844 -4.761719 L 6.214844 -4.628906 C 5.949219 -4.609375 5.777344 -4.5625 5.699219 -4.484375 C 5.621094 -4.40625 5.582031 -4.238281 5.582031 -3.984375 L 5.582031 -0.78125 C 5.582031 -0.519531 5.621094 -0.351562 5.699219 -0.277344 C 5.777344 -0.203125 5.949219 -0.152344 6.214844 -0.128906 L 6.214844 0 L 4.199219 0 L 4.199219 -0.128906 C 4.488281 -0.152344 4.667969 -0.207031 4.742188 -0.285156 C 4.8125 -0.367188 4.847656 -0.558594 4.847656 -0.863281 L 4.847656 -4.097656 L 3.003906 0 L 2.90625 0 L 1.097656 -3.929688 L 1.097656 -1.058594 C 1.097656 -0.664062 1.152344 -0.40625 1.269531 -0.289062 C 1.34375 -0.210938 1.511719 -0.15625 1.773438 -0.128906 L 1.773438 0 L 0.0820312 0 Z M 0.0820312 -0.128906 "/>
</g>
<g id="glyph-0-19">
<path d="M 1.722656 -0.128906 C 2.066406 -0.128906 2.304688 -0.320312 2.433594 -0.695312 C 2.5625 -1.074219 2.625 -1.621094 2.625 -2.335938 C 2.625 -2.90625 2.585938 -3.359375 2.511719 -3.699219 C 2.367188 -4.332031 2.09375 -4.648438 1.695312 -4.648438 C 1.296875 -4.648438 1.023438 -4.320312 0.875 -3.671875 C 0.796875 -3.324219 0.757812 -2.867188 0.757812 -2.300781 C 0.757812 -1.769531 0.800781 -1.339844 0.878906 -1.023438 C 1.027344 -0.429688 1.308594 -0.128906 1.722656 -0.128906 Z M 1.710938 -4.835938 C 2.25 -4.835938 2.667969 -4.554688 2.96875 -3.988281 C 3.203125 -3.53125 3.320312 -3.007812 3.320312 -2.414062 C 3.320312 -1.949219 3.25 -1.507812 3.105469 -1.097656 C 2.832031 -0.320312 2.355469 0.0664062 1.679688 0.0664062 C 1.21875 0.0664062 0.839844 -0.144531 0.542969 -0.5625 C 0.222656 -1.011719 0.0625 -1.617188 0.0625 -2.386719 C 0.0625 -2.992188 0.167969 -3.511719 0.382812 -3.949219 C 0.671875 -4.542969 1.113281 -4.835938 1.710938 -4.835938 Z M 1.710938 -4.835938 "/>
</g>
<g id="glyph-0-20">
<path d="M 1.796875 -2.015625 C 1.957031 -2.015625 2.121094 -2.058594 2.289062 -2.148438 C 2.460938 -2.238281 2.558594 -2.3125 2.582031 -2.371094 C 2.589844 -2.394531 2.597656 -2.484375 2.605469 -2.636719 C 2.613281 -2.785156 2.617188 -2.910156 2.617188 -3.003906 C 2.617188 -3.492188 2.535156 -3.886719 2.371094 -4.191406 C 2.207031 -4.496094 1.964844 -4.648438 1.648438 -4.648438 C 1.417969 -4.648438 1.234375 -4.542969 1.089844 -4.335938 C 0.949219 -4.125 0.878906 -3.8125 0.878906 -3.398438 C 0.878906 -3.058594 0.945312 -2.742188 1.078125 -2.449219 C 1.210938 -2.160156 1.449219 -2.015625 1.796875 -2.015625 Z M 1.699219 -4.847656 C 2.214844 -4.847656 2.613281 -4.640625 2.894531 -4.230469 C 3.175781 -3.820312 3.316406 -3.359375 3.316406 -2.855469 C 3.316406 -2.5 3.25 -2.136719 3.113281 -1.769531 C 2.980469 -1.402344 2.785156 -1.070312 2.53125 -0.785156 C 2.234375 -0.453125 1.855469 -0.203125 1.398438 -0.0429688 C 1.144531 0.0507812 0.820312 0.121094 0.433594 0.167969 L 0.398438 0.0273438 C 0.640625 -0.0273438 0.84375 -0.0859375 1.003906 -0.152344 C 1.296875 -0.265625 1.527344 -0.40625 1.703125 -0.574219 C 1.953125 -0.808594 2.152344 -1.074219 2.300781 -1.367188 C 2.449219 -1.65625 2.542969 -1.902344 2.582031 -2.097656 L 2.457031 -2.007812 C 2.285156 -1.875 2.078125 -1.785156 1.84375 -1.738281 C 1.722656 -1.710938 1.613281 -1.695312 1.511719 -1.695312 C 1.113281 -1.695312 0.796875 -1.835938 0.5625 -2.117188 C 0.332031 -2.398438 0.214844 -2.738281 0.214844 -3.128906 C 0.214844 -3.628906 0.351562 -4.039062 0.632812 -4.363281 C 0.910156 -4.6875 1.265625 -4.847656 1.699219 -4.847656 Z M 1.699219 -4.847656 "/>
</g>
</g>
<clipPath id="clip-0">
<path clip-rule="nonzero" d="M 372.960938 62 L 569.148438 62 L 569.148438 84.238281 L 372.960938 84.238281 Z M 569.148438 84.238281 L 570 84.238281 L 570 121 L 569.148438 121 Z M 372.960938 84.238281 L 537.789062 84.238281 L 537.789062 121 L 372.960938 121 Z M 372.960938 84.238281 "/>
</clipPath>
<clipPath id="clip-1">
<path clip-rule="evenodd" d="M 372.960938 1.988281 L 569.148438 1.988281 L 569.148438 180.585938 L 372.960938 180.585938 Z M 408.808594 82.402344 L 418.964844 79.179688 L 414.511719 83.214844 L 417.660156 88.335938 Z M 408.808594 82.402344 "/>
</clipPath>
<clipPath id="clip-2">
<path clip-rule="evenodd" d="M 372.960938 1.988281 L 569.148438 1.988281 L 569.148438 180.585938 L 372.960938 180.585938 Z M 401.925781 102.324219 L 368.03125 102.324219 L 357.558594 70.089844 L 384.980469 50.167969 L 412.402344 70.089844 Z M 401.925781 102.324219 "/>
</clipPath>
<clipPath id="clip-3">
<path clip-rule="evenodd" d="M 372.960938 1.988281 L 569.148438 1.988281 L 569.148438 180.585938 L 372.960938 180.585938 Z M 372.960938 1.988281 L 413.609375 82.402344 C 413.609375 88.800781 404.007812 88.800781 404.007812 82.402344 C 404.007812 76 413.609375 76 413.609375 82.402344 "/>
</clipPath>
<clipPath id="clip-4">
<path clip-rule="nonzero" d="M 576.464844 86 L 702 86 L 702 122.910156 L 576.464844 122.910156 Z M 540 122.910156 L 702 122.910156 L 702 234 L 540 234 Z M 540 122.910156 "/>
</clipPath>
<clipPath id="clip-5">
<path clip-rule="evenodd" d="M 505.230469 44.980469 L 736.871094 44.980469 L 736.871094 275.105469 L 505.230469 275.105469 Z M 666.851562 200.503906 L 656.59375 197.609375 L 662.53125 196.6875 L 662.714844 190.679688 Z M 666.851562 200.503906 "/>
</clipPath>
<clipPath id="clip-6">
<path clip-rule="evenodd" d="M 505.230469 44.980469 L 736.871094 44.980469 L 736.871094 275.105469 L 505.230469 275.105469 Z M 701.84375 239.730469 L 668.105469 239.730469 L 657.679688 207.644531 L 684.972656 187.8125 L 712.269531 207.644531 Z M 701.84375 239.730469 "/>
</clipPath>
<clipPath id="clip-7">
<path clip-rule="evenodd" d="M 505.230469 44.980469 L 736.871094 44.980469 L 736.871094 275.105469 L 505.230469 275.105469 Z M 505.230469 44.980469 L 671.648438 200.503906 C 671.648438 206.902344 662.050781 206.902344 662.050781 200.503906 C 662.050781 194.101562 671.648438 194.101562 671.648438 200.503906 "/>
</clipPath>
<clipPath id="clip-8">
<path clip-rule="nonzero" d="M 368 75.523438 L 406 75.523438 L 406 178.355469 L 368 178.355469 Z M 368 178.355469 L 369.15625 178.355469 L 369.15625 201.183594 L 368 201.183594 Z M 369.15625 201.183594 L 406 201.183594 L 406 202 L 369.15625 202 Z M 369.15625 201.183594 "/>
</clipPath>
<clipPath id="clip-9">
<path clip-rule="evenodd" d="M 307.234375 75.523438 L 466.257812 75.523438 L 466.257812 201.183594 L 307.234375 201.183594 Z M 385.683594 102.714844 L 390.589844 112.171875 L 385.855469 108.472656 L 381.347656 112.445312 Z M 385.683594 102.714844 "/>
</clipPath>
<clipPath id="clip-10">
<path clip-rule="evenodd" d="M 307.234375 75.523438 L 466.257812 75.523438 L 466.257812 201.183594 L 307.234375 201.183594 Z M 401.925781 102.324219 L 368.03125 102.324219 L 357.558594 70.089844 L 384.980469 50.167969 L 412.402344 70.089844 Z M 401.925781 102.324219 "/>
</clipPath>
<clipPath id="clip-11">
<path clip-rule="evenodd" d="M 307.234375 75.523438 L 466.257812 75.523438 L 466.257812 201.183594 L 307.234375 201.183594 Z M 307.234375 75.523438 L 390.484375 102.714844 C 390.484375 109.113281 380.882812 109.113281 380.882812 102.714844 C 380.882812 96.3125 390.484375 96.3125 390.484375 102.714844 "/>
</clipPath>
<clipPath id="clip-12">
<path clip-rule="nonzero" d="M 371 185 L 407.863281 185 L 407.863281 185.71875 L 371 185.71875 Z M 407.863281 185.71875 L 424 185.71875 L 424 217.058594 L 407.863281 217.058594 Z M 371 217.058594 L 424 217.058594 L 424 334.078125 L 371 334.078125 Z M 371 217.058594 "/>
</clipPath>
<clipPath id="clip-13">
<path clip-rule="evenodd" d="M 311.496094 185.71875 L 483.226562 185.71875 L 483.226562 334.078125 L 311.496094 334.078125 Z M 402.425781 295.496094 L 396.496094 286.640625 L 401.617188 289.792969 L 405.652344 285.339844 Z M 402.425781 295.496094 "/>
</clipPath>
<clipPath id="clip-14">
<path clip-rule="evenodd" d="M 311.496094 185.71875 L 483.226562 185.71875 L 483.226562 334.078125 L 311.496094 334.078125 Z M 423.179688 345.441406 L 389.246094 345.441406 L 378.761719 313.167969 L 406.210938 293.226562 L 433.664062 313.167969 Z M 423.179688 345.441406 "/>
</clipPath>
<clipPath id="clip-15">
<path clip-rule="evenodd" d="M 311.496094 185.71875 L 483.226562 185.71875 L 483.226562 334.078125 L 311.496094 334.078125 Z M 311.496094 185.71875 L 407.226562 295.496094 C 407.226562 301.894531 397.628906 301.894531 397.628906 295.496094 C 397.628906 289.09375 407.226562 289.09375 407.226562 295.496094 "/>
</clipPath>
<clipPath id="clip-16">
<path clip-rule="nonzero" d="M 197 62 L 402 62 L 402 139 L 197 139 Z M 197 62 "/>
</clipPath>
<clipPath id="clip-17">
<path clip-rule="evenodd" d="M 194.644531 3.53125 L 404.851562 3.53125 L 404.851562 197.320312 L 194.644531 197.320312 Z M 361.929688 84.792969 L 353.746094 91.617188 L 356.339844 86.199219 L 351.492188 82.652344 Z M 361.929688 84.792969 "/>
</clipPath>
<clipPath id="clip-18">
<path clip-rule="evenodd" d="M 194.644531 3.53125 L 404.851562 3.53125 L 404.851562 197.320312 L 194.644531 197.320312 Z M 221.5 131.460938 L 207.535156 131.460938 L 203.21875 118.179688 L 214.515625 109.972656 L 225.816406 118.179688 Z M 221.5 131.460938 "/>
</clipPath>
<clipPath id="clip-19">
<path clip-rule="evenodd" d="M 194.644531 3.53125 L 404.851562 3.53125 L 404.851562 197.320312 L 194.644531 197.320312 Z M 401.925781 102.324219 L 368.03125 102.324219 L 357.558594 70.089844 L 384.980469 50.167969 L 412.402344 70.089844 Z M 401.925781 102.324219 "/>
</clipPath>
<clipPath id="clip-20">
<path clip-rule="evenodd" d="M 194.644531 3.53125 L 404.851562 3.53125 L 404.851562 197.320312 L 194.644531 197.320312 Z M 194.644531 3.53125 L 366.726562 84.792969 C 366.726562 91.195312 357.128906 91.195312 357.128906 84.792969 C 357.128906 78.394531 366.726562 78.394531 366.726562 84.792969 "/>
</clipPath>
<clipPath id="clip-21">
<path clip-rule="nonzero" d="M 668 199 L 750 199 L 750 393 L 668 393 Z M 668 199 "/>
</clipPath>
<clipPath id="clip-22">
<path clip-rule="evenodd" d="M 610.410156 193.355469 L 807.085938 193.355469 L 807.085938 398.535156 L 610.410156 398.535156 Z M 692.039062 240.121094 L 699.222656 247.992188 L 693.691406 245.636719 L 690.363281 250.640625 Z M 692.039062 240.121094 "/>
</clipPath>
<clipPath id="clip-23">
<path clip-rule="evenodd" d="M 610.410156 193.355469 L 807.085938 193.355469 L 807.085938 398.535156 L 610.410156 398.535156 Z M 739.667969 385.210938 L 725.378906 385.210938 L 720.964844 371.621094 L 732.523438 363.222656 L 744.082031 371.621094 Z M 739.667969 385.210938 "/>
</clipPath>
<clipPath id="clip-24">
<path clip-rule="evenodd" d="M 610.410156 193.355469 L 807.085938 193.355469 L 807.085938 398.535156 L 610.410156 398.535156 Z M 701.84375 239.730469 L 668.105469 239.730469 L 657.679688 207.644531 L 684.972656 187.8125 L 712.269531 207.644531 Z M 701.84375 239.730469 "/>
</clipPath>
<clipPath id="clip-25">
<path clip-rule="evenodd" d="M 610.410156 193.355469 L 807.085938 193.355469 L 807.085938 398.535156 L 610.410156 398.535156 Z M 610.410156 193.355469 L 696.839844 240.121094 C 696.839844 246.519531 687.242188 246.519531 687.242188 240.121094 C 687.242188 233.71875 696.839844 233.71875 696.839844 240.121094 "/>
</clipPath>
<clipPath id="clip-26">
<path clip-rule="nonzero" d="M 389 305 L 462 305 L 462 464 L 389 464 Z M 389 305 "/>
</clipPath>
<clipPath id="clip-27">
<path clip-rule="evenodd" d="M 331.882812 298.152344 L 519.335938 298.152344 L 519.335938 470.804688 L 331.882812 470.804688 Z M 413.59375 345.828125 L 420.859375 353.625 L 415.304688 351.328125 L 412.027344 356.371094 Z M 413.59375 345.828125 "/>
</clipPath>
<clipPath id="clip-28">
<path clip-rule="evenodd" d="M 331.882812 298.152344 L 519.335938 298.152344 L 519.335938 470.804688 L 331.882812 470.804688 Z M 452.242188 456.828125 L 437.769531 456.828125 L 433.300781 443.0625 L 445.007812 434.558594 L 456.714844 443.0625 Z M 452.242188 456.828125 "/>
</clipPath>
<clipPath id="clip-29">
<path clip-rule="evenodd" d="M 331.882812 298.152344 L 519.335938 298.152344 L 519.335938 470.804688 L 331.882812 470.804688 Z M 423.179688 345.441406 L 389.246094 345.441406 L 378.761719 313.167969 L 406.210938 293.226562 L 433.664062 313.167969 Z M 423.179688 345.441406 "/>
</clipPath>
<clipPath id="clip-30">
<path clip-rule="evenodd" d="M 331.882812 298.152344 L 519.335938 298.152344 L 519.335938 470.804688 L 331.882812 470.804688 Z M 331.882812 298.152344 L 418.394531 345.828125 C 418.394531 352.230469 408.792969 352.230469 408.792969 345.828125 C 408.792969 339.429688 418.394531 339.429688 418.394531 345.828125 "/>
</clipPath>
<clipPath id="clip-31">
<path clip-rule="nonzero" d="M 428 429 L 520 429 L 520 575 L 428 575 Z M 428 429 "/>
</clipPath>
<clipPath id="clip-32">
<path clip-rule="evenodd" d="M 375.902344 410.269531 L 571.765625 410.269531 L 571.765625 594.0625 L 375.902344 594.0625 Z M 450.402344 457.214844 L 458.9375 463.589844 L 453.0625 462.324219 L 450.738281 467.863281 Z M 450.402344 457.214844 "/>
</clipPath>
<clipPath id="clip-33">
<path clip-rule="evenodd" d="M 375.902344 410.269531 L 571.765625 410.269531 L 571.765625 594.0625 L 375.902344 594.0625 Z M 375.902344 410.269531 L 536.695312 557.464844 C 536.695312 576.261719 521.457031 591.5 502.660156 591.5 C 483.863281 591.5 468.625 576.261719 468.625 557.464844 C 468.625 538.667969 483.863281 523.433594 502.660156 523.433594 C 521.457031 523.433594 536.695312 538.667969 536.695312 557.464844 Z M 375.902344 410.269531 "/>
</clipPath>
<clipPath id="clip-34">
<path clip-rule="evenodd" d="M 375.902344 410.269531 L 571.765625 410.269531 L 571.765625 594.0625 L 375.902344 594.0625 Z M 452.242188 456.828125 L 437.769531 456.828125 L 433.300781 443.0625 L 445.007812 434.558594 L 456.714844 443.0625 Z M 452.242188 456.828125 "/>
</clipPath>
<clipPath id="clip-35">
<path clip-rule="evenodd" d="M 375.902344 410.269531 L 571.765625 410.269531 L 571.765625 594.0625 L 375.902344 594.0625 Z M 375.902344 410.269531 L 455.199219 457.214844 C 455.199219 463.613281 445.601562 463.613281 445.601562 457.214844 C 445.601562 450.816406 455.199219 450.816406 455.199219 457.214844 "/>
</clipPath>
<clipPath id="clip-36">
<path clip-rule="nonzero" d="M 87 104 L 232 104 L 232 263 L 87 263 Z M 87 104 "/>
</clipPath>
<clipPath id="clip-37">
<path clip-rule="evenodd" d="M 46.042969 69.617188 L 272.8125 69.617188 L 272.8125 297.347656 L 46.042969 297.347656 Z M 206.808594 130.476562 L 203.855469 140.714844 L 202.96875 134.773438 L 196.960938 134.554688 Z M 206.808594 130.476562 "/>
</clipPath>
<clipPath id="clip-38">
<path clip-rule="evenodd" d="M 46.042969 69.617188 L 272.8125 69.617188 L 272.8125 297.347656 L 46.042969 297.347656 Z M 46.042969 69.617188 L 138.035156 245.113281 C 138.035156 263.722656 122.949219 278.808594 104.339844 278.808594 C 85.730469 278.808594 70.644531 263.722656 70.644531 245.113281 C 70.644531 226.503906 85.730469 211.417969 104.339844 211.417969 C 122.949219 211.417969 138.035156 226.503906 138.035156 245.113281 Z M 46.042969 69.617188 "/>
</clipPath>
<clipPath id="clip-39">
<path clip-rule="evenodd" d="M 46.042969 69.617188 L 272.8125 69.617188 L 272.8125 297.347656 L 46.042969 297.347656 Z M 221.5 131.460938 L 207.535156 131.460938 L 203.21875 118.179688 L 214.515625 109.972656 L 225.816406 118.179688 Z M 221.5 131.460938 "/>
</clipPath>
<clipPath id="clip-40">
<path clip-rule="evenodd" d="M 46.042969 69.617188 L 272.8125 69.617188 L 272.8125 297.347656 L 46.042969 297.347656 Z M 46.042969 69.617188 L 211.605469 130.476562 C 211.605469 136.878906 202.007812 136.878906 202.007812 130.476562 C 202.007812 124.078125 211.605469 124.078125 211.605469 130.476562 "/>
</clipPath>
<clipPath id="clip-41">
<path clip-rule="nonzero" d="M 677 358 L 750 358 L 750 555 L 677 555 Z M 677 358 "/>
</clipPath>
<clipPath id="clip-42">
<path clip-rule="evenodd" d="M 618.339844 356.515625 L 808.238281 356.515625 L 808.238281 556.53125 L 618.339844 556.53125 Z M 730.101562 385.597656 L 732.386719 396.007812 L 728.773438 391.203125 L 723.386719 393.875 Z M 730.101562 385.597656 "/>
</clipPath>
<clipPath id="clip-43">
<path clip-rule="evenodd" d="M 618.339844 356.515625 L 808.238281 356.515625 L 808.238281 556.53125 L 618.339844 556.53125 Z M 618.339844 356.515625 L 728.148438 537.667969 C 728.148438 556.496094 712.882812 571.761719 694.054688 571.761719 C 675.226562 571.761719 659.960938 556.496094 659.960938 537.667969 C 659.960938 518.835938 675.226562 503.574219 694.054688 503.574219 C 712.882812 503.574219 728.148438 518.835938 728.148438 537.667969 Z M 618.339844 356.515625 "/>
</clipPath>
<clipPath id="clip-44">
<path clip-rule="evenodd" d="M 618.339844 356.515625 L 808.238281 356.515625 L 808.238281 556.53125 L 618.339844 556.53125 Z M 739.667969 385.210938 L 725.378906 385.210938 L 720.964844 371.621094 L 732.523438 363.222656 L 744.082031 371.621094 Z M 739.667969 385.210938 "/>
</clipPath>
<clipPath id="clip-45">
<path clip-rule="evenodd" d="M 618.339844 356.515625 L 808.238281 356.515625 L 808.238281 556.53125 L 618.339844 556.53125 Z M 618.339844 356.515625 L 734.902344 385.597656 C 734.902344 392 725.300781 392 725.300781 385.597656 C 725.300781 379.199219 734.902344 379.199219 734.902344 385.597656 "/>
</clipPath>
<clipPath id="clip-46">
<path clip-rule="nonzero" d="M 382 640 L 581 640 L 581 732 L 382 732 Z M 382 640 "/>
</clipPath>
<clipPath id="clip-47">
<path clip-rule="evenodd" d="M 373.226562 584.226562 L 590 584.226562 L 590 788.351562 L 373.226562 788.351562 Z M 530.988281 669.117188 L 523.441406 676.636719 L 525.546875 671.007812 L 520.402344 667.902344 Z M 530.988281 669.117188 "/>
</clipPath>
<clipPath id="clip-48">
<path clip-rule="evenodd" d="M 373.226562 584.226562 L 590 584.226562 L 590 788.351562 L 373.226562 788.351562 Z M 373.226562 584.226562 L 433.5 714.820312 C 433.5 733.550781 418.316406 748.734375 399.582031 748.734375 C 380.851562 748.734375 365.667969 733.550781 365.667969 714.820312 C 365.667969 696.085938 380.851562 680.902344 399.582031 680.902344 C 418.316406 680.902344 433.5 696.085938 433.5 714.820312 Z M 373.226562 584.226562 "/>
</clipPath>
<clipPath id="clip-49">
<path clip-rule="evenodd" d="M 373.226562 584.226562 L 590 584.226562 L 590 788.351562 L 373.226562 788.351562 Z M 373.226562 584.226562 L 597.738281 657.757812 C 597.738281 676.585938 582.472656 691.851562 563.644531 691.851562 C 544.8125 691.851562 529.550781 676.585938 529.550781 657.757812 C 529.550781 638.929688 544.8125 623.664062 563.644531 623.664062 C 582.472656 623.664062 597.738281 638.929688 597.738281 657.757812 Z M 373.226562 584.226562 "/>
</clipPath>
<clipPath id="clip-50">
<path clip-rule="evenodd" d="M 373.226562 584.226562 L 590 584.226562 L 590 788.351562 L 373.226562 788.351562 Z M 373.226562 584.226562 L 535.789062 669.117188 C 535.789062 675.515625 526.1875 675.515625 526.1875 669.117188 C 526.1875 662.714844 535.789062 662.714844 535.789062 669.117188 "/>
</clipPath>
<clipPath id="clip-51">
<path clip-rule="nonzero" d="M 219 657 L 417 657 L 417 732 L 219 732 Z M 219 657 "/>
</clipPath>
<clipPath id="clip-52">
<path clip-rule="evenodd" d="M 216.453125 598.476562 L 419.359375 598.476562 L 419.359375 790.3125 L 216.453125 790.3125 Z M 269.71875 682.34375 L 280.152344 680.1875 L 275.308594 683.738281 L 277.910156 689.15625 Z M 269.71875 682.34375 "/>
</clipPath>
<clipPath id="clip-53">
<path clip-rule="evenodd" d="M 216.453125 598.476562 L 419.359375 598.476562 L 419.359375 790.3125 L 216.453125 790.3125 Z M 216.453125 598.476562 L 433.5 714.820312 C 433.5 733.550781 418.316406 748.734375 399.582031 748.734375 C 380.851562 748.734375 365.667969 733.550781 365.667969 714.820312 C 365.667969 696.085938 380.851562 680.902344 399.582031 680.902344 C 418.316406 680.902344 433.5 696.085938 433.5 714.820312 Z M 216.453125 598.476562 "/>
</clipPath>
<clipPath id="clip-54">
<path clip-rule="evenodd" d="M 216.453125 598.476562 L 419.359375 598.476562 L 419.359375 790.3125 L 216.453125 790.3125 Z M 216.453125 598.476562 L 270.269531 673.96875 C 270.269531 692.765625 255.03125 708.007812 236.230469 708.007812 C 217.429688 708.007812 202.191406 692.765625 202.191406 673.96875 C 202.191406 655.167969 217.429688 639.929688 236.230469 639.929688 C 255.03125 639.929688 270.269531 655.167969 270.269531 673.96875 Z M 216.453125 598.476562 "/>
</clipPath>
<clipPath id="clip-55">
<path clip-rule="evenodd" d="M 216.453125 598.476562 L 419.359375 598.476562 L 419.359375 790.3125 L 216.453125 790.3125 Z M 216.453125 598.476562 L 274.519531 682.34375 C 274.519531 688.742188 264.917969 688.742188 264.917969 682.34375 C 264.917969 675.941406 274.519531 675.941406 274.519531 682.34375 "/>
</clipPath>
<clipPath id="clip-56">
<path clip-rule="nonzero" d="M 485 540 L 581 540 L 581 675 L 485 675 Z M 485 540 "/>
</clipPath>
<clipPath id="clip-57">
<path clip-rule="evenodd" d="M 436.027344 516.476562 L 630.277344 516.476562 L 630.277344 698.746094 L 436.027344 698.746094 Z M 520.59375 586.957031 L 529.53125 592.757812 L 523.585938 591.878906 L 521.632812 597.5625 Z M 520.59375 586.957031 "/>
</clipPath>
<clipPath id="clip-58">
<path clip-rule="evenodd" d="M 436.027344 516.476562 L 630.277344 516.476562 L 630.277344 698.746094 L 436.027344 698.746094 Z M 436.027344 516.476562 L 597.738281 657.757812 C 597.738281 676.585938 582.472656 691.851562 563.644531 691.851562 C 544.8125 691.851562 529.550781 676.585938 529.550781 657.757812 C 529.550781 638.929688 544.8125 623.664062 563.644531 623.664062 C 582.472656 623.664062 597.738281 638.929688 597.738281 657.757812 Z M 436.027344 516.476562 "/>
</clipPath>
<clipPath id="clip-59">
<path clip-rule="evenodd" d="M 436.027344 516.476562 L 630.277344 516.476562 L 630.277344 698.746094 L 436.027344 698.746094 Z M 436.027344 516.476562 L 536.695312 557.464844 C 536.695312 576.261719 521.457031 591.5 502.660156 591.5 C 483.863281 591.5 468.625 576.261719 468.625 557.464844 C 468.625 538.667969 483.863281 523.433594 502.660156 523.433594 C 521.457031 523.433594 536.695312 538.667969 536.695312 557.464844 Z M 436.027344 516.476562 "/>
</clipPath>
<clipPath id="clip-60">
<path clip-rule="evenodd" d="M 436.027344 516.476562 L 630.277344 516.476562 L 630.277344 698.746094 L 436.027344 698.746094 Z M 436.027344 516.476562 L 525.394531 586.957031 C 525.394531 593.359375 515.792969 593.359375 515.792969 586.957031 C 515.792969 580.558594 525.394531 580.558594 525.394531 586.957031 "/>
</clipPath>
<clipPath id="clip-61">
<path clip-rule="nonzero" d="M 546 520 L 712 520 L 712 675 L 546 675 Z M 546 520 "/>
</clipPath>
<clipPath id="clip-62">
<path clip-rule="evenodd" d="M 510.570312 480.136719 L 747.128906 480.136719 L 747.128906 715.289062 L 510.570312 715.289062 Z M 668.621094 561.085938 L 664.691406 570.992188 L 664.386719 564.988281 L 658.429688 564.1875 Z M 668.621094 561.085938 "/>
</clipPath>
<clipPath id="clip-63">
<path clip-rule="evenodd" d="M 510.570312 480.136719 L 747.128906 480.136719 L 747.128906 715.289062 L 510.570312 715.289062 Z M 510.570312 480.136719 L 597.738281 657.757812 C 597.738281 676.585938 582.472656 691.851562 563.644531 691.851562 C 544.8125 691.851562 529.550781 676.585938 529.550781 657.757812 C 529.550781 638.929688 544.8125 623.664062 563.644531 623.664062 C 582.472656 623.664062 597.738281 638.929688 597.738281 657.757812 Z M 510.570312 480.136719 "/>
</clipPath>
<clipPath id="clip-64">
<path clip-rule="evenodd" d="M 510.570312 480.136719 L 747.128906 480.136719 L 747.128906 715.289062 L 510.570312 715.289062 Z M 510.570312 480.136719 L 728.148438 537.667969 C 728.148438 556.496094 712.882812 571.761719 694.054688 571.761719 C 675.226562 571.761719 659.960938 556.496094 659.960938 537.667969 C 659.960938 518.835938 675.226562 503.574219 694.054688 503.574219 C 712.882812 503.574219 728.148438 518.835938 728.148438 537.667969 Z M 510.570312 480.136719 "/>
</clipPath>
<clipPath id="clip-65">
<path clip-rule="evenodd" d="M 510.570312 480.136719 L 747.128906 480.136719 L 747.128906 715.289062 L 510.570312 715.289062 Z M 510.570312 480.136719 L 673.421875 561.085938 C 673.421875 567.488281 663.820312 567.488281 663.820312 561.085938 C 663.820312 554.6875 673.421875 554.6875 673.421875 561.085938 "/>
</clipPath>
<clipPath id="clip-66">
<path clip-rule="nonzero" d="M 52 228 L 122 228 L 122 424 L 52 424 Z M 52 228 "/>
</clipPath>
<clipPath id="clip-67">
<path clip-rule="evenodd" d="M -6.1875 227.914062 L 180.429688 227.914062 L 180.429688 423.519531 L -6.1875 423.519531 Z M 97.203125 278.535156 L 99.71875 288.890625 L 96 284.167969 L 90.675781 286.957031 Z M 97.203125 278.535156 "/>
</clipPath>
<clipPath id="clip-68">
<path clip-rule="evenodd" d="M -6.1875 227.914062 L 180.429688 227.914062 L 180.429688 423.519531 L -6.1875 423.519531 Z M -6.1875 227.914062 L 103.996094 406.320312 C 103.996094 425.148438 88.734375 440.414062 69.902344 440.414062 C 51.074219 440.414062 35.808594 425.148438 35.808594 406.320312 C 35.808594 387.488281 51.074219 372.226562 69.902344 372.226562 C 88.734375 372.226562 103.996094 387.488281 103.996094 406.320312 Z M -6.1875 227.914062 "/>
</clipPath>
<clipPath id="clip-69">
<path clip-rule="evenodd" d="M -6.1875 227.914062 L 180.429688 227.914062 L 180.429688 423.519531 L -6.1875 423.519531 Z M -6.1875 227.914062 L 138.035156 245.113281 C 138.035156 263.722656 122.949219 278.808594 104.339844 278.808594 C 85.730469 278.808594 70.644531 263.722656 70.644531 245.113281 C 70.644531 226.503906 85.730469 211.417969 104.339844 211.417969 C 122.949219 211.417969 138.035156 226.503906 138.035156 245.113281 Z M -6.1875 227.914062 "/>
</clipPath>
<clipPath id="clip-70">
<path clip-rule="evenodd" d="M -6.1875 227.914062 L 180.429688 227.914062 L 180.429688 423.519531 L -6.1875 423.519531 Z M -6.1875 227.914062 L 102 278.535156 C 102 284.933594 92.402344 284.933594 92.402344 278.535156 C 92.402344 272.136719 102 272.136719 102 278.535156 "/>
</clipPath>
<clipPath id="clip-71">
<path clip-rule="nonzero" d="M 103 544 L 254 544 L 254 691 L 103 691 Z M 103 544 "/>
</clipPath>
<clipPath id="clip-72">
<path clip-rule="evenodd" d="M 65.855469 505.667969 L 290.636719 505.667969 L 290.636719 730.246094 L 65.855469 730.246094 Z M 145.128906 585.964844 L 155.246094 589.308594 L 149.273438 589.96875 L 148.820312 595.960938 Z M 145.128906 585.964844 "/>
</clipPath>
<clipPath id="clip-73">
<path clip-rule="evenodd" d="M 65.855469 505.667969 L 290.636719 505.667969 L 290.636719 730.246094 L 65.855469 730.246094 Z M 65.855469 505.667969 L 270.269531 673.96875 C 270.269531 692.765625 255.03125 708.007812 236.230469 708.007812 C 217.429688 708.007812 202.191406 692.765625 202.191406 673.96875 C 202.191406 655.167969 217.429688 639.929688 236.230469 639.929688 C 255.03125 639.929688 270.269531 655.167969 270.269531 673.96875 Z M 65.855469 505.667969 "/>
</clipPath>
<clipPath id="clip-74">
<path clip-rule="evenodd" d="M 65.855469 505.667969 L 290.636719 505.667969 L 290.636719 730.246094 L 65.855469 730.246094 Z M 65.855469 505.667969 L 154.355469 561.945312 C 154.355469 580.773438 139.089844 596.039062 120.261719 596.039062 C 101.433594 596.039062 86.167969 580.773438 86.167969 561.945312 C 86.167969 543.113281 101.433594 527.851562 120.261719 527.851562 C 139.089844 527.851562 154.355469 543.113281 154.355469 561.945312 Z M 65.855469 505.667969 "/>
</clipPath>
<clipPath id="clip-75">
<path clip-rule="evenodd" d="M 65.855469 505.667969 L 290.636719 505.667969 L 290.636719 730.246094 L 65.855469 730.246094 Z M 65.855469 505.667969 L 149.929688 585.964844 C 149.929688 592.363281 140.328125 592.363281 140.328125 585.964844 C 140.328125 579.566406 149.929688 579.566406 149.929688 585.964844 "/>
</clipPath>
<clipPath id="clip-76">
<path clip-rule="nonzero" d="M 52 389 L 138 389 L 138 579 L 52 579 Z M 52 389 "/>
</clipPath>
<clipPath id="clip-77">
<path clip-rule="evenodd" d="M -4.15625 381.542969 L 194.320312 381.542969 L 194.320312 586.722656 L -4.15625 586.722656 Z M 80.546875 439.214844 L 87.902344 446.925781 L 82.320312 444.695312 L 79.105469 449.769531 Z M 80.546875 439.214844 "/>
</clipPath>
<clipPath id="clip-78">
<path clip-rule="evenodd" d="M -4.15625 381.542969 L 194.320312 381.542969 L 194.320312 586.722656 L -4.15625 586.722656 Z M -4.15625 381.542969 L 154.355469 561.945312 C 154.355469 580.773438 139.089844 596.039062 120.261719 596.039062 C 101.433594 596.039062 86.167969 580.773438 86.167969 561.945312 C 86.167969 543.113281 101.433594 527.851562 120.261719 527.851562 C 139.089844 527.851562 154.355469 543.113281 154.355469 561.945312 Z M -4.15625 381.542969 "/>
</clipPath>
<clipPath id="clip-79">
<path clip-rule="evenodd" d="M -4.15625 381.542969 L 194.320312 381.542969 L 194.320312 586.722656 L -4.15625 586.722656 Z M -4.15625 381.542969 L 103.996094 406.320312 C 103.996094 425.148438 88.734375 440.414062 69.902344 440.414062 C 51.074219 440.414062 35.808594 425.148438 35.808594 406.320312 C 35.808594 387.488281 51.074219 372.226562 69.902344 372.226562 C 88.734375 372.226562 103.996094 387.488281 103.996094 406.320312 Z M -4.15625 381.542969 "/>
</clipPath>
<clipPath id="clip-80">
<path clip-rule="evenodd" d="M -4.15625 381.542969 L 194.320312 381.542969 L 194.320312 586.722656 L -4.15625 586.722656 Z M -4.15625 381.542969 L 85.347656 439.214844 C 85.347656 445.613281 75.75 445.613281 75.75 439.214844 C 75.75 432.8125 85.347656 432.8125 85.347656 439.214844 "/>
</clipPath>
</defs>
<g clip-path="url(#clip-0)">
<g clip-path="url(#clip-1)">
<g clip-path="url(#clip-2)">
<g clip-path="url(#clip-3)">
<path fill="none" stroke-width="0.0156698" stroke-linecap="butt" stroke-linejoin="miter" stroke="rgb(65.1%, 80.7%, 89%)" stroke-opacity="1" stroke-miterlimit="10" d="M 0.11559 0.300122 L -2.132355 -0.0207731 " transform="matrix(76.580343, 0, 0, 76.580343, 548.276963, 80.59081)"/>
</g>
</g>
</g>
</g>
<path fill-rule="evenodd" fill="rgb(65.1%, 80.7%, 89%)" fill-opacity="1" d="M 408.808594 82.402344 L 418.964844 79.179688 L 414.511719 83.214844 L 417.660156 88.335938 Z M 408.808594 82.402344 "/>
<g clip-path="url(#clip-4)">
<g clip-path="url(#clip-5)">
<g clip-path="url(#clip-6)">
<g clip-path="url(#clip-7)">
<path fill="none" stroke-width="0.0156698" stroke-linecap="butt" stroke-linejoin="miter" stroke="rgb(65.1%, 80.7%, 89%)" stroke-opacity="1" stroke-miterlimit="10" d="M 0.11559 0.300122 L 1.784997 1.77488 " transform="matrix(76.580343, 0, 0, 76.580343, 548.276963, 80.59081)"/>
</g>
</g>
</g>
</g>
<path fill-rule="evenodd" fill="rgb(65.1%, 80.7%, 89%)" fill-opacity="1" d="M 666.851562 200.503906 L 656.59375 197.609375 L 662.53125 196.6875 L 662.714844 190.679688 Z M 666.851562 200.503906 "/>
<g clip-path="url(#clip-8)">
<g clip-path="url(#clip-9)">
<g clip-path="url(#clip-10)">
<g clip-path="url(#clip-11)">
<path fill="none" stroke-width="0.0156698" stroke-linecap="butt" stroke-linejoin="miter" stroke="rgb(65.1%, 80.7%, 89%)" stroke-opacity="1" stroke-miterlimit="10" d="M -2.086244 1.529325 L -2.132355 -0.0207731 " transform="matrix(76.580343, 0, 0, 76.580343, 548.276963, 80.59081)"/>
</g>
</g>
</g>
</g>
<path fill-rule="evenodd" fill="rgb(65.1%, 80.7%, 89%)" fill-opacity="1" d="M 385.683594 102.714844 L 390.589844 112.171875 L 385.855469 108.472656 L 381.347656 112.445312 Z M 385.683594 102.714844 "/>
<g clip-path="url(#clip-12)">
<g clip-path="url(#clip-13)">
<g clip-path="url(#clip-14)">
<g clip-path="url(#clip-15)">
<path fill="none" stroke-width="0.0156698" stroke-linecap="butt" stroke-linejoin="miter" stroke="rgb(65.1%, 80.7%, 89%)" stroke-opacity="1" stroke-miterlimit="10" d="M -2.086244 1.529325 L -1.855124 3.153538 " transform="matrix(76.580343, 0, 0, 76.580343, 548.276963, 80.59081)"/>
</g>
</g>
</g>
</g>
<path fill-rule="evenodd" fill="rgb(65.1%, 80.7%, 89%)" fill-opacity="1" d="M 402.425781 295.496094 L 396.496094 286.640625 L 401.617188 289.792969 L 405.652344 285.339844 Z M 402.425781 295.496094 "/>
<g clip-path="url(#clip-16)">
<g clip-path="url(#clip-17)">
<g clip-path="url(#clip-18)">
<g clip-path="url(#clip-19)">
<g clip-path="url(#clip-20)">
<path fill="none" stroke-width="0.0156698" stroke-linecap="butt" stroke-linejoin="miter" stroke="rgb(100%, 40%, 40%)" stroke-opacity="1" stroke-miterlimit="10" d="M -4.358316 0.53879 L -2.132355 -0.0207731 " transform="matrix(76.580343, 0, 0, 76.580343, 548.276963, 80.59081)"/>
</g>
</g>
</g>
</g>
</g>
<path fill-rule="evenodd" fill="rgb(100%, 40%, 40%)" fill-opacity="1" d="M 361.929688 84.792969 L 353.746094 91.617188 L 356.339844 86.199219 L 351.492188 82.652344 Z M 361.929688 84.792969 "/>
<g clip-path="url(#clip-21)">
<g clip-path="url(#clip-22)">
<g clip-path="url(#clip-23)">
<g clip-path="url(#clip-24)">
<g clip-path="url(#clip-25)">
<path fill="none" stroke-width="0.0156698" stroke-linecap="butt" stroke-linejoin="miter" stroke="rgb(100%, 40%, 40%)" stroke-opacity="1" stroke-miterlimit="10" d="M 2.405924 3.849396 L 1.784997 1.77488 " transform="matrix(76.580343, 0, 0, 76.580343, 548.276963, 80.59081)"/>
</g>
</g>
</g>
</g>
</g>
<path fill-rule="evenodd" fill="rgb(100%, 40%, 40%)" fill-opacity="1" d="M 692.039062 240.121094 L 699.222656 247.992188 L 693.691406 245.636719 L 690.363281 250.640625 Z M 692.039062 240.121094 "/>
<g clip-path="url(#clip-26)">
<g clip-path="url(#clip-27)">
<g clip-path="url(#clip-28)">
<g clip-path="url(#clip-29)">
<g clip-path="url(#clip-30)">
<path fill="none" stroke-width="0.0156698" stroke-linecap="butt" stroke-linejoin="miter" stroke="rgb(100%, 40%, 40%)" stroke-opacity="1" stroke-miterlimit="10" d="M -1.348507 4.782903 L -1.855124 3.153538 " transform="matrix(76.580343, 0, 0, 76.580343, 548.276963, 80.59081)"/>
</g>
</g>
</g>
</g>
</g>
<path fill-rule="evenodd" fill="rgb(100%, 40%, 40%)" fill-opacity="1" d="M 413.59375 345.828125 L 420.859375 353.625 L 415.304688 351.328125 L 412.027344 356.371094 Z M 413.59375 345.828125 "/>
<g clip-path="url(#clip-31)">
<g clip-path="url(#clip-32)">
<g clip-path="url(#clip-33)">
<g clip-path="url(#clip-34)">
<g clip-path="url(#clip-35)">
<path fill="none" stroke-width="0.0156698" stroke-linecap="butt" stroke-linejoin="miter" stroke="rgb(98.8%, 73.3%, 29.8%)" stroke-opacity="1" stroke-miterlimit="10" d="M -0.595673 6.227108 L -1.348507 4.782903 " transform="matrix(76.580343, 0, 0, 76.580343, 548.276963, 80.59081)"/>
</g>
</g>
</g>
</g>
</g>
<path fill-rule="evenodd" fill="rgb(98.8%, 73.3%, 29.8%)" fill-opacity="1" d="M 450.402344 457.214844 L 458.9375 463.589844 L 453.0625 462.324219 L 450.738281 467.863281 Z M 450.402344 457.214844 "/>
<g clip-path="url(#clip-36)">
<g clip-path="url(#clip-37)">
<g clip-path="url(#clip-38)">
<g clip-path="url(#clip-39)">
<g clip-path="url(#clip-40)">
<path fill="none" stroke-width="0.0156698" stroke-linecap="butt" stroke-linejoin="miter" stroke="rgb(98.8%, 73.3%, 29.8%)" stroke-opacity="1" stroke-miterlimit="10" d="M -5.797011 2.148364 L -4.358316 0.53879 " transform="matrix(76.580343, 0, 0, 76.580343, 548.276963, 80.59081)"/>
</g>
</g>
</g>
</g>
</g>
<path fill-rule="evenodd" fill="rgb(98.8%, 73.3%, 29.8%)" fill-opacity="1" d="M 206.808594 130.476562 L 203.855469 140.714844 L 202.96875 134.773438 L 196.960938 134.554688 Z M 206.808594 130.476562 "/>
<g clip-path="url(#clip-41)">
<g clip-path="url(#clip-42)">
<g clip-path="url(#clip-43)">
<g clip-path="url(#clip-44)">
<g clip-path="url(#clip-45)">
<path fill="none" stroke-width="0.0156698" stroke-linecap="butt" stroke-linejoin="miter" stroke="rgb(98.8%, 73.3%, 29.8%)" stroke-opacity="1" stroke-miterlimit="10" d="M 1.903592 5.968596 L 2.405924 3.849396 " transform="matrix(76.580343, 0, 0, 76.580343, 548.276963, 80.59081)"/>
</g>
</g>
</g>
</g>
</g>
<path fill-rule="evenodd" fill="rgb(98.8%, 73.3%, 29.8%)" fill-opacity="1" d="M 730.101562 385.597656 L 732.386719 396.007812 L 728.773438 391.203125 L 723.386719 393.875 Z M 730.101562 385.597656 "/>
<g clip-path="url(#clip-46)">
<g clip-path="url(#clip-47)">
<g clip-path="url(#clip-48)">
<g clip-path="url(#clip-49)">
<g clip-path="url(#clip-50)">
<path fill="none" stroke-width="0.0156698" stroke-linecap="butt" stroke-linejoin="miter" stroke="rgb(98.8%, 73.3%, 29.8%)" stroke-opacity="1" stroke-miterlimit="10" d="M -1.941685 8.281884 L 0.200672 7.536751 " transform="matrix(76.580343, 0, 0, 76.580343, 548.276963, 80.59081)"/>
</g>
</g>
</g>
</g>
</g>
<path fill-rule="evenodd" fill="rgb(98.8%, 73.3%, 29.8%)" fill-opacity="1" d="M 530.988281 669.117188 L 523.441406 676.636719 L 525.546875 671.007812 L 520.402344 667.902344 Z M 530.988281 669.117188 "/>
<g clip-path="url(#clip-51)">
<g clip-path="url(#clip-52)">
<g clip-path="url(#clip-53)">
<g clip-path="url(#clip-54)">
<g clip-path="url(#clip-55)">
<path fill="none" stroke-width="0.0156698" stroke-linecap="butt" stroke-linejoin="miter" stroke="rgb(98.8%, 73.3%, 29.8%)" stroke-opacity="1" stroke-miterlimit="10" d="M -1.941685 8.281884 L -4.07476 7.748437 " transform="matrix(76.580343, 0, 0, 76.580343, 548.276963, 80.59081)"/>
</g>
</g>
</g>
</g>
</g>
<path fill-rule="evenodd" fill="rgb(98.8%, 73.3%, 29.8%)" fill-opacity="1" d="M 269.71875 682.34375 L 280.152344 680.1875 L 275.308594 683.738281 L 277.910156 689.15625 Z M 269.71875 682.34375 "/>
<g clip-path="url(#clip-56)">
<g clip-path="url(#clip-57)">
<g clip-path="url(#clip-58)">
<g clip-path="url(#clip-59)">
<g clip-path="url(#clip-60)">
<path fill="none" stroke-width="0.0156698" stroke-linecap="butt" stroke-linejoin="miter" stroke="rgb(98.8%, 73.3%, 29.8%)" stroke-opacity="1" stroke-miterlimit="10" d="M 0.200672 7.536751 L -0.595673 6.227108 " transform="matrix(76.580343, 0, 0, 76.580343, 548.276963, 80.59081)"/>
</g>
</g>
</g>
</g>
</g>
<path fill-rule="evenodd" fill="rgb(98.8%, 73.3%, 29.8%)" fill-opacity="1" d="M 520.59375 586.957031 L 529.53125 592.757812 L 523.585938 591.878906 L 521.632812 597.5625 Z M 520.59375 586.957031 "/>
<g clip-path="url(#clip-61)">
<g clip-path="url(#clip-62)">
<g clip-path="url(#clip-63)">
<g clip-path="url(#clip-64)">
<g clip-path="url(#clip-65)">
<path fill="none" stroke-width="0.0156698" stroke-linecap="butt" stroke-linejoin="miter" stroke="rgb(98.8%, 73.3%, 29.8%)" stroke-opacity="1" stroke-miterlimit="10" d="M 0.200672 7.536751 L 1.903592 5.968596 " transform="matrix(76.580343, 0, 0, 76.580343, 548.276963, 80.59081)"/>
</g>
</g>
</g>
</g>
</g>
<path fill-rule="evenodd" fill="rgb(98.8%, 73.3%, 29.8%)" fill-opacity="1" d="M 668.621094 561.085938 L 664.691406 570.992188 L 664.386719 564.988281 L 658.429688 564.1875 Z M 668.621094 561.085938 "/>
<g clip-path="url(#clip-66)">
<g clip-path="url(#clip-67)">
<g clip-path="url(#clip-68)">
<g clip-path="url(#clip-69)">
<g clip-path="url(#clip-70)">
<path fill="none" stroke-width="0.0156698" stroke-linecap="butt" stroke-linejoin="miter" stroke="rgb(98.8%, 73.3%, 29.8%)" stroke-opacity="1" stroke-miterlimit="10" d="M -6.246703 4.253435 L -5.797011 2.148364 " transform="matrix(76.580343, 0, 0, 76.580343, 548.276963, 80.59081)"/>
</g>
</g>
</g>
</g>
</g>
<path fill-rule="evenodd" fill="rgb(98.8%, 73.3%, 29.8%)" fill-opacity="1" d="M 97.203125 278.535156 L 99.71875 288.890625 L 96 284.167969 L 90.675781 286.957031 Z M 97.203125 278.535156 "/>
<g clip-path="url(#clip-71)">
<g clip-path="url(#clip-72)">
<g clip-path="url(#clip-73)">
<g clip-path="url(#clip-74)">
<g clip-path="url(#clip-75)">
<path fill="none" stroke-width="0.0156698" stroke-linecap="butt" stroke-linejoin="miter" stroke="rgb(98.8%, 73.3%, 29.8%)" stroke-opacity="1" stroke-miterlimit="10" d="M -4.07476 7.748437 L -5.589101 6.285614 " transform="matrix(76.580343, 0, 0, 76.580343, 548.276963, 80.59081)"/>
</g>
</g>
</g>
</g>
</g>
<path fill-rule="evenodd" fill="rgb(98.8%, 73.3%, 29.8%)" fill-opacity="1" d="M 145.128906 585.964844 L 155.246094 589.308594 L 149.273438 589.96875 L 148.820312 595.960938 Z M 145.128906 585.964844 "/>
<g clip-path="url(#clip-76)">
<g clip-path="url(#clip-77)">
<g clip-path="url(#clip-78)">
<g clip-path="url(#clip-79)">
<g clip-path="url(#clip-80)">
<path fill="none" stroke-width="0.0156698" stroke-linecap="butt" stroke-linejoin="miter" stroke="rgb(98.8%, 73.3%, 29.8%)" stroke-opacity="1" stroke-miterlimit="10" d="M -5.589101 6.285614 L -6.246703 4.253435 " transform="matrix(76.580343, 0, 0, 76.580343, 548.276963, 80.59081)"/>
</g>
</g>
</g>
</g>
</g>
<path fill-rule="evenodd" fill="rgb(98.8%, 73.3%, 29.8%)" fill-opacity="1" d="M 80.546875 439.214844 L 87.902344 446.925781 L 82.320312 444.695312 L 79.105469 449.769531 Z M 80.546875 439.214844 "/>
<path fill-rule="nonzero" fill="rgb(65.1%, 80.7%, 89%)" fill-opacity="1" stroke-width="0.0156698" stroke-linecap="butt" stroke-linejoin="miter" stroke="rgb(60%, 60%, 60%)" stroke-opacity="0.8" stroke-miterlimit="10" d="M 0.252511 0.252484 L -0.252524 0.252484 L -0.252524 -0.2525 L 0.252511 -0.2525 Z M 0.252511 0.252484 " transform="matrix(76.580343, 0, 0, 76.580343, 557.12744, 103.574829)"/>
<g fill="rgb(0%, 0%, 0%)" fill-opacity="1">
<use xlink:href="#glyph-0-0" x="537.513768" y="106.086743"/>
<use xlink:href="#glyph-0-1" x="542.316112" y="106.086743"/>
<use xlink:href="#glyph-0-2" x="547.515721" y="106.086743"/>
<use xlink:href="#glyph-0-3" x="551.913768" y="106.086743"/>
<use xlink:href="#glyph-0-4" x="557.113378" y="106.086743"/>
<use xlink:href="#glyph-0-5" x="559.113768" y="106.086743"/>
<use xlink:href="#glyph-0-6" x="562.713768" y="106.086743"/>
<use xlink:href="#glyph-0-7" x="566.313768" y="106.086743"/>
<use xlink:href="#glyph-0-7" x="569.913768" y="106.086743"/>
<use xlink:href="#glyph-0-7" x="573.513768" y="106.086743"/>
</g>
<path fill-rule="nonzero" fill="rgb(65.1%, 80.7%, 89%)" fill-opacity="1" stroke-width="0.0156698" stroke-linecap="butt" stroke-linejoin="miter" stroke="rgb(60%, 60%, 60%)" stroke-opacity="0.8" stroke-miterlimit="10" d="M 0.252719 0.252714 L -0.252724 0.252714 L -0.252724 -0.252679 L 0.252719 -0.252679 Z M 0.252719 0.252714 " transform="matrix(76.580343, 0, 0, 76.580343, 388.509976, 197.705701)"/>
<g fill="rgb(0%, 0%, 0%)" fill-opacity="1">
<use xlink:href="#glyph-0-0" x="368.880483" y="200.168397"/>
<use xlink:href="#glyph-0-1" x="373.682827" y="200.168397"/>
<use xlink:href="#glyph-0-2" x="378.882436" y="200.168397"/>
<use xlink:href="#glyph-0-3" x="383.280483" y="200.168397"/>
<use xlink:href="#glyph-0-4" x="388.480093" y="200.168397"/>
<use xlink:href="#glyph-0-8" x="390.480483" y="200.168397"/>
<use xlink:href="#glyph-0-8" x="394.080483" y="200.168397"/>
<use xlink:href="#glyph-0-9" x="397.680483" y="200.168397"/>
<use xlink:href="#glyph-0-6" x="401.280483" y="200.168397"/>
<use xlink:href="#glyph-0-6" x="404.880483" y="200.168397"/>
</g>
<path fill-rule="nonzero" fill="rgb(0%, 100%, 100%)" fill-opacity="0.6" d="M 428.226562 79 C 428.226562 102.886719 408.863281 122.246094 384.980469 122.246094 C 361.09375 122.246094 341.730469 102.886719 341.730469 79 C 341.730469 55.113281 361.09375 35.75 384.980469 35.75 C 408.863281 35.75 428.226562 55.113281 428.226562 79 "/>
<path fill-rule="nonzero" fill="rgb(65.1%, 80.7%, 89%)" fill-opacity="1" stroke-width="0.0156698" stroke-linecap="butt" stroke-linejoin="miter" stroke="rgb(60%, 60%, 60%)" stroke-opacity="0.8" stroke-miterlimit="10" d="M 0.221288 0.304579 L -0.221313 0.304579 L -0.358067 -0.116343 L 0.0000130555 -0.376487 L 0.358093 -0.116343 Z M 0.221288 0.304579 " transform="matrix(76.580343, 0, 0, 76.580343, 384.979469, 78.999436)"/>
<g fill="rgb(0%, 0%, 0%)" fill-opacity="1">
<use xlink:href="#glyph-0-10" x="364.205641" y="81.520139"/>
<use xlink:href="#glyph-0-1" x="369.007985" y="81.520139"/>
<use xlink:href="#glyph-0-2" x="374.207594" y="81.520139"/>
<use xlink:href="#glyph-0-11" x="378.605641" y="81.520139"/>
<use xlink:href="#glyph-0-12" x="383.407985" y="81.520139"/>
<use xlink:href="#glyph-0-4" x="385.805641" y="81.520139"/>
<use xlink:href="#glyph-0-8" x="387.806031" y="81.520139"/>
<use xlink:href="#glyph-0-13" x="391.406031" y="81.520139"/>
<use xlink:href="#glyph-0-5" x="395.006031" y="81.520139"/>
<use xlink:href="#glyph-0-5" x="398.606031" y="81.520139"/>
<use xlink:href="#glyph-0-14" x="402.206031" y="81.520139"/>
</g>
<path fill-rule="nonzero" fill="rgb(65.1%, 80.7%, 89%)" fill-opacity="1" stroke-width="0.0156698" stroke-linecap="butt" stroke-linejoin="miter" stroke="rgb(60%, 60%, 60%)" stroke-opacity="0.8" stroke-miterlimit="10" d="M 0.221563 0.304935 L -0.221548 0.304935 L -0.358455 -0.116498 L -0.0000180463 -0.376896 L 0.35847 -0.116498 Z M 0.221563 0.304935 " transform="matrix(76.580343, 0, 0, 76.580343, 406.212319, 322.089403)"/>
<g fill="rgb(0%, 0%, 0%)" fill-opacity="1">
<use xlink:href="#glyph-0-10" x="385.41564" y="324.622411"/>
<use xlink:href="#glyph-0-1" x="390.217984" y="324.622411"/>
<use xlink:href="#glyph-0-2" x="395.417593" y="324.622411"/>
<use xlink:href="#glyph-0-11" x="399.81564" y="324.622411"/>
<use xlink:href="#glyph-0-12" x="404.617984" y="324.622411"/>
<use xlink:href="#glyph-0-4" x="407.01564" y="324.622411"/>
<use xlink:href="#glyph-0-7" x="409.01603" y="324.622411"/>
<use xlink:href="#glyph-0-6" x="412.61603" y="324.622411"/>
<use xlink:href="#glyph-0-5" x="416.21603" y="324.622411"/>
<use xlink:href="#glyph-0-9" x="419.81603" y="324.622411"/>
<use xlink:href="#glyph-0-15" x="423.41603" y="324.622411"/>
</g>
<path fill-rule="nonzero" fill="rgb(65.1%, 80.7%, 89%)" fill-opacity="1" stroke-width="0.0156698" stroke-linecap="butt" stroke-linejoin="miter" stroke="rgb(60%, 60%, 60%)" stroke-opacity="0.8" stroke-miterlimit="10" d="M 0.220281 0.303175 L -0.22028 0.303175 L -0.356422 -0.115809 L -0.0000251196 -0.374779 L 0.356422 -0.115809 Z M 0.220281 0.303175 " transform="matrix(76.580343, 0, 0, 76.580343, 684.97458, 216.513237)"/>
<g fill="rgb(0%, 0%, 0%)" fill-opacity="1">
<use xlink:href="#glyph-0-10" x="664.295674" y="219.033941"/>
<use xlink:href="#glyph-0-1" x="669.098017" y="219.033941"/>
<use xlink:href="#glyph-0-2" x="674.297627" y="219.033941"/>
<use xlink:href="#glyph-0-11" x="678.695674" y="219.033941"/>
<use xlink:href="#glyph-0-12" x="683.498017" y="219.033941"/>
<use xlink:href="#glyph-0-4" x="685.895674" y="219.033941"/>
<use xlink:href="#glyph-0-15" x="687.896064" y="219.033941"/>
<use xlink:href="#glyph-0-6" x="691.496064" y="219.033941"/>
<use xlink:href="#glyph-0-6" x="695.096064" y="219.033941"/>
<use xlink:href="#glyph-0-14" x="698.696064" y="219.033941"/>
<use xlink:href="#glyph-0-6" x="702.296064" y="219.033941"/>
</g>
<path fill-rule="nonzero" fill="rgb(98.8%, 73.3%, 29.8%)" fill-opacity="1" stroke-width="0.0156698" stroke-linecap="butt" stroke-linejoin="miter" stroke="rgb(60%, 60%, 60%)" stroke-opacity="0.8" stroke-miterlimit="10" d="M 0.0911836 0.125483 L -0.0911719 0.125483 L -0.147536 -0.0479458 L -0.0000196787 -0.155115 L 0.147548 -0.0479458 Z M 0.0911836 0.125483 " transform="matrix(76.580343, 0, 0, 76.580343, 214.517132, 121.851395)"/>
<g fill="rgb(0%, 0%, 0%)" fill-opacity="1">
<use xlink:href="#glyph-0-8" x="205.234124" y="124.351004"/>
<use xlink:href="#glyph-0-13" x="208.834124" y="124.351004"/>
<use xlink:href="#glyph-0-5" x="212.434124" y="124.351004"/>
<use xlink:href="#glyph-0-5" x="216.034124" y="124.351004"/>
<use xlink:href="#glyph-0-14" x="219.634124" y="124.351004"/>
</g>
<path fill-rule="nonzero" fill="rgb(98.8%, 73.3%, 29.8%)" fill-opacity="1" stroke-width="0.0156698" stroke-linecap="butt" stroke-linejoin="miter" stroke="rgb(60%, 60%, 60%)" stroke-opacity="0.8" stroke-miterlimit="10" d="M 0.0932903 0.12841 L -0.0932989 0.12841 L -0.150939 -0.0490481 L -0.00000430883 -0.158716 L 0.15093 -0.0490481 Z M 0.0932903 0.12841 " transform="matrix(76.580343, 0, 0, 76.580343, 732.523767, 375.377218)"/>
<g fill="rgb(0%, 0%, 0%)" fill-opacity="1">
<use xlink:href="#glyph-0-15" x="723.627478" y="377.876827"/>
<use xlink:href="#glyph-0-6" x="727.227478" y="377.876827"/>
<use xlink:href="#glyph-0-6" x="730.827478" y="377.876827"/>
<use xlink:href="#glyph-0-14" x="734.427478" y="377.876827"/>
<use xlink:href="#glyph-0-6" x="738.027478" y="377.876827"/>
</g>
<path fill-rule="nonzero" fill="rgb(98.8%, 73.3%, 29.8%)" fill-opacity="1" stroke-width="0.0156698" stroke-linecap="butt" stroke-linejoin="miter" stroke="rgb(60%, 60%, 60%)" stroke-opacity="0.8" stroke-miterlimit="10" d="M 0.0944838 0.130066 L -0.0945028 0.130066 L -0.152857 -0.0496884 L 0.0000159973 -0.160734 L 0.152889 -0.0496884 Z M 0.0944838 0.130066 " transform="matrix(76.580343, 0, 0, 76.580343, 445.006587, 446.867656)"/>
<g fill="rgb(0%, 0%, 0%)" fill-opacity="1">
<use xlink:href="#glyph-0-7" x="435.985494" y="449.37957"/>
<use xlink:href="#glyph-0-6" x="439.585494" y="449.37957"/>
<use xlink:href="#glyph-0-5" x="443.185494" y="449.37957"/>
<use xlink:href="#glyph-0-9" x="446.785494" y="449.37957"/>
<use xlink:href="#glyph-0-15" x="450.385494" y="449.37957"/>
</g>
<path fill-rule="nonzero" fill="rgb(98.8%, 73.3%, 29.8%)" fill-opacity="1" stroke-width="0.0156698" stroke-linecap="butt" stroke-linejoin="miter" stroke="rgb(60%, 60%, 60%)" stroke-opacity="0.8" stroke-miterlimit="10" d="M 0.444419 -0.0000230438 C 0.444419 0.24543 0.245434 0.444414 -0.0000185679 0.444414 C -0.245472 0.444414 -0.444456 0.24543 -0.444456 -0.0000230438 C -0.444456 -0.245476 -0.245472 -0.444409 -0.0000185679 -0.444409 C 0.245434 -0.444409 0.444419 -0.245476 0.444419 -0.0000230438 Z M 0.444419 -0.0000230438 " transform="matrix(76.580343, 0, 0, 76.580343, 502.661578, 557.466608)"/>
<g fill="rgb(0%, 0%, 0%)" fill-opacity="1">
<use xlink:href="#glyph-0-16" x="478.052203" y="559.983796"/>
<use xlink:href="#glyph-0-17" x="482.0565" y="559.983796"/>
<use xlink:href="#glyph-0-18" x="486.454547" y="559.983796"/>
<use xlink:href="#glyph-0-4" x="492.8565" y="559.983796"/>
<use xlink:href="#glyph-0-19" x="494.856891" y="559.983796"/>
<use xlink:href="#glyph-0-19" x="498.456891" y="559.983796"/>
<use xlink:href="#glyph-0-19" x="502.056891" y="559.983796"/>
<use xlink:href="#glyph-0-19" x="505.656891" y="559.983796"/>
<use xlink:href="#glyph-0-19" x="509.256891" y="559.983796"/>
<use xlink:href="#glyph-0-19" x="512.856891" y="559.983796"/>
<use xlink:href="#glyph-0-15" x="516.456891" y="559.983796"/>
<use xlink:href="#glyph-0-9" x="520.056891" y="559.983796"/>
<use xlink:href="#glyph-0-20" x="523.656891" y="559.983796"/>
</g>
<path fill-rule="nonzero" fill="rgb(98.8%, 73.3%, 29.8%)" fill-opacity="1" stroke-width="0.0156698" stroke-linecap="butt" stroke-linejoin="miter" stroke="rgb(60%, 60%, 60%)" stroke-opacity="0.8" stroke-miterlimit="10" d="M 0.439985 -0.0000143234 C 0.439985 0.24299 0.24299 0.439985 -0.0000146158 0.439985 C -0.243019 0.439985 -0.440014 0.24299 -0.440014 -0.0000143234 C -0.440014 -0.243019 -0.243019 -0.440014 -0.0000146158 -0.440014 C 0.24299 -0.440014 0.439985 -0.243019 0.439985 -0.0000143234 Z M 0.439985 -0.0000143234 " transform="matrix(76.580343, 0, 0, 76.580343, 104.340963, 245.114378)"/>
<g fill="rgb(0%, 0%, 0%)" fill-opacity="1">
<use xlink:href="#glyph-0-16" x="79.974166" y="247.635081"/>
<use xlink:href="#glyph-0-17" x="83.978463" y="247.635081"/>
<use xlink:href="#glyph-0-18" x="88.37651" y="247.635081"/>
<use xlink:href="#glyph-0-4" x="94.778463" y="247.635081"/>
<use xlink:href="#glyph-0-19" x="96.778854" y="247.635081"/>
<use xlink:href="#glyph-0-19" x="100.378854" y="247.635081"/>
<use xlink:href="#glyph-0-19" x="103.978854" y="247.635081"/>
<use xlink:href="#glyph-0-19" x="107.578854" y="247.635081"/>
<use xlink:href="#glyph-0-19" x="111.178854" y="247.635081"/>
<use xlink:href="#glyph-0-19" x="114.778854" y="247.635081"/>
<use xlink:href="#glyph-0-7" x="118.378854" y="247.635081"/>
<use xlink:href="#glyph-0-8" x="121.978854" y="247.635081"/>
<use xlink:href="#glyph-0-8" x="125.578854" y="247.635081"/>
</g>
<path fill-rule="nonzero" fill="rgb(98.8%, 73.3%, 29.8%)" fill-opacity="1" stroke-width="0.0156698" stroke-linecap="butt" stroke-linejoin="miter" stroke="rgb(60%, 60%, 60%)" stroke-opacity="0.8" stroke-miterlimit="10" d="M 0.445197 0.0000192532 C 0.445197 0.24588 0.245856 0.445222 -0.00000548285 0.445222 C -0.245867 0.445222 -0.445208 0.24588 -0.445208 0.0000192532 C -0.445208 -0.245893 -0.245867 -0.445183 -0.00000548285 -0.445183 C 0.245856 -0.445183 0.445197 -0.245893 0.445197 0.0000192532 Z M 0.445197 0.0000192532 " transform="matrix(76.580343, 0, 0, 76.580343, 694.055107, 537.666494)"/>
<g fill="rgb(0%, 0%, 0%)" fill-opacity="1">
<use xlink:href="#glyph-0-16" x="669.403545" y="540.183682"/>
<use xlink:href="#glyph-0-17" x="673.407842" y="540.183682"/>
<use xlink:href="#glyph-0-18" x="677.805889" y="540.183682"/>
<use xlink:href="#glyph-0-4" x="684.207842" y="540.183682"/>
<use xlink:href="#glyph-0-19" x="686.208232" y="540.183682"/>
<use xlink:href="#glyph-0-19" x="689.808232" y="540.183682"/>
<use xlink:href="#glyph-0-19" x="693.408232" y="540.183682"/>
<use xlink:href="#glyph-0-19" x="697.008232" y="540.183682"/>
<use xlink:href="#glyph-0-19" x="700.608232" y="540.183682"/>
<use xlink:href="#glyph-0-19" x="704.208232" y="540.183682"/>
<use xlink:href="#glyph-0-20" x="707.808232" y="540.183682"/>
<use xlink:href="#glyph-0-6" x="711.408232" y="540.183682"/>
<use xlink:href="#glyph-0-9" x="715.008232" y="540.183682"/>
</g>
<path fill-rule="nonzero" fill="rgb(100%, 100%, 0%)" fill-opacity="0.6" d="M 450.457031 714.820312 C 450.457031 742.917969 427.679688 765.695312 399.582031 765.695312 C 371.484375 765.695312 348.707031 742.917969 348.707031 714.820312 C 348.707031 686.722656 371.484375 663.945312 399.582031 663.945312 C 427.679688 663.945312 450.457031 686.722656 450.457031 714.820312 "/>
<path fill-rule="nonzero" fill="rgb(98.8%, 73.3%, 29.8%)" fill-opacity="1" stroke-width="0.0156698" stroke-linecap="butt" stroke-linejoin="miter" stroke="rgb(60%, 60%, 60%)" stroke-opacity="0.8" stroke-miterlimit="10" d="M 0.442891 0.0000173352 C 0.442891 0.244603 0.244621 0.442873 -0.0000159599 0.442873 C -0.244602 0.442873 -0.442872 0.244603 -0.442872 0.0000173352 C -0.442872 -0.24462 -0.244602 -0.44289 -0.0000159599 -0.44289 C 0.244621 -0.44289 0.442891 -0.24462 0.442891 0.0000173352 Z M 0.442891 0.0000173352 " transform="matrix(76.580343, 0, 0, 76.580343, 399.583253, 714.818985)"/>
<g fill="rgb(0%, 0%, 0%)" fill-opacity="1">
<use xlink:href="#glyph-0-16" x="375.058253" y="717.376602"/>
<use xlink:href="#glyph-0-17" x="379.06255" y="717.376602"/>
<use xlink:href="#glyph-0-18" x="383.460597" y="717.376602"/>
<use xlink:href="#glyph-0-4" x="389.86255" y="717.376602"/>
<use xlink:href="#glyph-0-19" x="391.862941" y="717.376602"/>
<use xlink:href="#glyph-0-19" x="395.462941" y="717.376602"/>
<use xlink:href="#glyph-0-19" x="399.062941" y="717.376602"/>
<use xlink:href="#glyph-0-5" x="402.662941" y="717.376602"/>
<use xlink:href="#glyph-0-6" x="406.262941" y="717.376602"/>
<use xlink:href="#glyph-0-20" x="409.862941" y="717.376602"/>
<use xlink:href="#glyph-0-8" x="413.462941" y="717.376602"/>
<use xlink:href="#glyph-0-9" x="417.062941" y="717.376602"/>
<use xlink:href="#glyph-0-7" x="420.662941" y="717.376602"/>
</g>
<path fill-rule="nonzero" fill="rgb(98.8%, 73.3%, 29.8%)" fill-opacity="1" stroke-width="0.0156698" stroke-linecap="butt" stroke-linejoin="miter" stroke="rgb(60%, 60%, 60%)" stroke-opacity="0.8" stroke-miterlimit="10" d="M 0.445217 -0.00000176047 C 0.445217 0.245859 0.245876 0.445201 0.0000151285 0.445201 C -0.245897 0.445201 -0.445187 0.245859 -0.445187 -0.00000176047 C -0.445187 -0.245863 -0.245897 -0.445204 0.0000151285 -0.445204 C 0.245876 -0.445204 0.445217 -0.245863 0.445217 -0.00000176047 Z M 0.445217 -0.00000176047 " transform="matrix(76.580343, 0, 0, 76.580343, 563.643373, 657.757947)"/>
<g fill="rgb(0%, 0%, 0%)" fill-opacity="1">
<use xlink:href="#glyph-0-16" x="538.99181" y="660.315565"/>
<use xlink:href="#glyph-0-17" x="542.996107" y="660.315565"/>
<use xlink:href="#glyph-0-18" x="547.394154" y="660.315565"/>
<use xlink:href="#glyph-0-4" x="553.796107" y="660.315565"/>
<use xlink:href="#glyph-0-19" x="555.796498" y="660.315565"/>
<use xlink:href="#glyph-0-19" x="559.396498" y="660.315565"/>
<use xlink:href="#glyph-0-19" x="562.996498" y="660.315565"/>
<use xlink:href="#glyph-0-5" x="566.596498" y="660.315565"/>
<use xlink:href="#glyph-0-20" x="570.196498" y="660.315565"/>
<use xlink:href="#glyph-0-19" x="573.796498" y="660.315565"/>
<use xlink:href="#glyph-0-19" x="577.396498" y="660.315565"/>
<use xlink:href="#glyph-0-7" x="580.996498" y="660.315565"/>
<use xlink:href="#glyph-0-9" x="584.596498" y="660.315565"/>
</g>
<path fill-rule="nonzero" fill="rgb(98.8%, 73.3%, 29.8%)" fill-opacity="1" stroke-width="0.0156698" stroke-linecap="butt" stroke-linejoin="miter" stroke="rgb(60%, 60%, 60%)" stroke-opacity="0.8" stroke-miterlimit="10" d="M 0.44518 0.0000161284 C 0.44518 0.245877 0.24589 0.445218 -0.0000223076 0.445218 C -0.245883 0.445218 -0.445225 0.245877 -0.445225 0.0000161284 C -0.445225 -0.245896 -0.245883 -0.445186 -0.0000223076 -0.445186 C 0.24589 -0.445186 0.44518 -0.245896 0.44518 0.0000161284 Z M 0.44518 0.0000161284 " transform="matrix(76.580343, 0, 0, 76.580343, 69.904052, 406.319077)"/>
<g fill="rgb(0%, 0%, 0%)" fill-opacity="1">
<use xlink:href="#glyph-0-16" x="45.25249" y="408.839781"/>
<use xlink:href="#glyph-0-17" x="49.256786" y="408.839781"/>
<use xlink:href="#glyph-0-18" x="53.654833" y="408.839781"/>
<use xlink:href="#glyph-0-4" x="60.056786" y="408.839781"/>
<use xlink:href="#glyph-0-19" x="62.057177" y="408.839781"/>
<use xlink:href="#glyph-0-19" x="65.657177" y="408.839781"/>
<use xlink:href="#glyph-0-19" x="69.257177" y="408.839781"/>
<use xlink:href="#glyph-0-7" x="72.857177" y="408.839781"/>
<use xlink:href="#glyph-0-19" x="76.457177" y="408.839781"/>
<use xlink:href="#glyph-0-6" x="80.057177" y="408.839781"/>
<use xlink:href="#glyph-0-6" x="83.657177" y="408.839781"/>
<use xlink:href="#glyph-0-7" x="87.257177" y="408.839781"/>
<use xlink:href="#glyph-0-9" x="90.857177" y="408.839781"/>
</g>
<path fill-rule="nonzero" fill="rgb(98.8%, 73.3%, 29.8%)" fill-opacity="1" stroke-width="0.0156698" stroke-linecap="butt" stroke-linejoin="miter" stroke="rgb(60%, 60%, 60%)" stroke-opacity="0.8" stroke-miterlimit="10" d="M 0.44449 0.0000169963 C 0.44449 0.24547 0.245505 0.444505 0.00000128659 0.444505 C -0.245503 0.444505 -0.444487 0.24547 -0.444487 0.0000169963 C -0.444487 -0.245487 -0.245503 -0.444471 0.00000128659 -0.444471 C 0.245505 -0.444471 0.44449 -0.245487 0.44449 0.0000169963 Z M 0.44449 0.0000169963 " transform="matrix(76.580343, 0, 0, 76.580343, 236.23037, 673.967448)"/>
<g fill="rgb(0%, 0%, 0%)" fill-opacity="1">
<use xlink:href="#glyph-0-16" x="211.61748" y="676.488152"/>
<use xlink:href="#glyph-0-17" x="215.621776" y="676.488152"/>
<use xlink:href="#glyph-0-18" x="220.019823" y="676.488152"/>
<use xlink:href="#glyph-0-4" x="226.421776" y="676.488152"/>
<use xlink:href="#glyph-0-19" x="228.422167" y="676.488152"/>
<use xlink:href="#glyph-0-19" x="232.022167" y="676.488152"/>
<use xlink:href="#glyph-0-19" x="235.622167" y="676.488152"/>
<use xlink:href="#glyph-0-7" x="239.222167" y="676.488152"/>
<use xlink:href="#glyph-0-19" x="242.822167" y="676.488152"/>
<use xlink:href="#glyph-0-6" x="246.422167" y="676.488152"/>
<use xlink:href="#glyph-0-6" x="250.022167" y="676.488152"/>
<use xlink:href="#glyph-0-14" x="253.622167" y="676.488152"/>
<use xlink:href="#glyph-0-19" x="257.222167" y="676.488152"/>
</g>
<path fill-rule="nonzero" fill="rgb(98.8%, 73.3%, 29.8%)" fill-opacity="1" stroke-width="0.0156698" stroke-linecap="butt" stroke-linejoin="miter" stroke="rgb(60%, 60%, 60%)" stroke-opacity="0.8" stroke-miterlimit="10" d="M 0.445197 0.000012747 C 0.445197 0.245874 0.245856 0.445215 -0.00000551497 0.445215 C -0.245867 0.445215 -0.445208 0.245874 -0.445208 0.000012747 C -0.445208 -0.245899 -0.245867 -0.44519 -0.00000551497 -0.44519 C 0.245856 -0.44519 0.445197 -0.245899 0.445197 0.000012747 Z M 0.445197 0.000012747 " transform="matrix(76.580343, 0, 0, 76.580343, 120.262141, 561.944336)"/>
<g fill="rgb(0%, 0%, 0%)" fill-opacity="1">
<use xlink:href="#glyph-0-16" x="95.610579" y="564.465039"/>
<use xlink:href="#glyph-0-17" x="99.614875" y="564.465039"/>
<use xlink:href="#glyph-0-18" x="104.012922" y="564.465039"/>
<use xlink:href="#glyph-0-4" x="110.414875" y="564.465039"/>
<use xlink:href="#glyph-0-19" x="112.415266" y="564.465039"/>
<use xlink:href="#glyph-0-19" x="116.015266" y="564.465039"/>
<use xlink:href="#glyph-0-19" x="119.615266" y="564.465039"/>
<use xlink:href="#glyph-0-7" x="123.215266" y="564.465039"/>
<use xlink:href="#glyph-0-19" x="126.815266" y="564.465039"/>
<use xlink:href="#glyph-0-6" x="130.415266" y="564.465039"/>
<use xlink:href="#glyph-0-6" x="134.015266" y="564.465039"/>
<use xlink:href="#glyph-0-14" x="137.615266" y="564.465039"/>
<use xlink:href="#glyph-0-9" x="141.215266" y="564.465039"/>
</g>
</svg>
